SplineFontDB: 3.2
FontName: Estedad-Thin
FullName: Estedad Thin
FamilyName: Estedad Thin
Weight: Thin
Copyright: Copyright (c) 2017-2019 by Amin Abedi (@aminabedi68)-www.opentypeshop.com and Copyright (c) 2019 by Amin Abedi (@aminabedi68)-www.fontamin.com,\nwith Reserved Font Name Estedad.\n\nThis Font Software is licensed under the SIL Open Font License, Version 1.1.
Version: 3.0
StrokeWidth: 100
ItalicAngle: 0
UnderlinePosition: -650
UnderlineWidth: 100
Ascent: 1638
Descent: 410
InvalidEm: 0
sfntRevision: 0x00030000
LayerCount: 2
Layer: 0 0 "Back" 1
Layer: 1 0 "Fore" 0
PreferredKerning: 4
StyleMap: 0x0000
FSType: 0
OS2Version: 0
OS2_WeightWidthSlopeOnly: 0
OS2_UseTypoMetrics: 1
CreationTime: 1496828874
ModificationTime: 1571600169
PfmFamily: 17
TTFWeight: 100
TTFWidth: 5
LineGap: 0
VLineGap: 213
OS2TypoAscent: 2200
OS2TypoAOffset: 0
OS2TypoDescent: -1200
OS2TypoDOffset: 0
OS2TypoLinegap: 0
OS2WinAscent: 2200
OS2WinAOffset: 0
OS2WinDescent: 1200
OS2WinDOffset: 0
HheadAscent: 2200
HheadAOffset: 0
HheadDescent: -1200
HheadDOffset: 0
OS2CapHeight: 1400
OS2XHeight: 1012
OS2Vendor: 'AA68'
Lookup: 2 0 0 "Multiple substitution 0" { "Multiple substitution 0 subtable"  } []
Lookup: 2 0 0 "Multiple substitution 1" { "Multiple substitution 1 subtable"  } []
Lookup: 1 9 0 "'fina' Terminal Forms in Arabic lookup 2" { "'fina' Terminal Forms in Arabic lookup 2 subtable"  } ['fina' ('arab' <'FAR ' 'KUR ' 'dflt' > ) ]
Lookup: 1 9 0 "'medi' Medial Forms in Arabic lookup 3" { "'medi' Medial Forms in Arabic lookup 3 subtable"  } ['medi' ('arab' <'FAR ' 'KUR ' 'dflt' > ) ]
Lookup: 1 9 0 "'init' Initial Forms in Arabic lookup 4" { "'init' Initial Forms in Arabic lookup 4 subtable"  } ['init' ('arab' <'FAR ' 'KUR ' 'dflt' > ) ]
Lookup: 4 9 1 "'rlig' Required Ligatures in Arabic lookup 5" { "'rlig' Required Ligatures in Arabic lookup 5 subtable"  } ['rlig' ('arab' <'FAR ' 'KUR ' 'dflt' > ) ]

StartChar: period
Encoding: 46 46 0
GlifName: period
Width: 550
Flags: HMW
LayerCount: 2
Fore
SplineSet
190 85 m 0
 190 132 229 169 276 169 c 0
 323 169 360 132 360 85 c 0
 360 38 323 0 276 0 c 0
 229 0 190 38 190 85 c 0
EndSplineSet
Colour: ff0000
EndChar

StartChar: slash
Encoding: 47 47 1
GlifName: slash
Width: 1050
Flags: HMW
LayerCount: 2
Fore
SplineSet
805 1407 m 1
 895 1365 l 1
 245 -46 l 1
 155 -4 l 1
 805 1407 l 1
EndSplineSet
Colour: ffff
EndChar

StartChar: asterisk
Encoding: 42 42 2
GlifName: asterisk
Width: 1133
Flags: HMW
LayerCount: 2
Fore
SplineSet
188 1084 m 1
 212 1156 l 1
 528 1052 l 1
 528 1386 l 1
 604 1386 l 1
 604 1052 l 1
 921 1156 l 1
 945 1084 l 1
 627 980 l 1
 824 710 l 1
 764 666 l 1
 566 936 l 1
 369 666 l 1
 309 710 l 1
 505 980 l 1
 188 1084 l 1
EndSplineSet
Colour: ff00ff
EndChar

StartChar: parenleft
Encoding: 40 40 3
GlifName: parenleft
Width: 598
Flags: HMW
LayerCount: 2
Fore
SplineSet
440 2 m 1
 356 -52 l 1
 222 158 150 394 150 681 c 0
 150 968 222 1203 356 1413 c 1
 440 1359 l 1
 316 1165 250 952 250 681 c 0
 250 410 316 196 440 2 c 1
EndSplineSet
Colour: ffff
EndChar

StartChar: parenright
Encoding: 41 41 4
GlifName: parenright
Width: 598
Flags: HMW
LayerCount: 2
Fore
SplineSet
158 1359 m 1
 242 1413 l 1
 376 1203 448 967 448 680 c 0
 448 393 376 158 242 -52 c 1
 158 2 l 1
 282 196 348 409 348 680 c 0
 348 951 282 1165 158 1359 c 1
EndSplineSet
Colour: ffff
EndChar

StartChar: uni0660
Encoding: 1632 1632 5
GlifName: uni0660
Width: 845
Flags: HMW
LayerCount: 2
Fore
SplineSet
422 598 m 0
 325 598 250 523 250 426 c 0
 250 329 326 252 422 252 c 0
 518 252 595 329 595 426 c 0
 595 522 519 598 422 598 c 0
422 698 m 0
 573 698 695 578 695 426 c 0
 695 275 574 152 422 152 c 0
 270 152 150 275 150 426 c 0
 150 577 271 698 422 698 c 0
EndSplineSet
PairPos2: "'kern' Horizontal Kerning in Arabic lookup 3 per glyph data 0" uni0662 dx=-125 dy=0 dh=-125 dv=0 dx=0 dy=0 dh=0 dv=0
PairPos2: "'kern' Horizontal Kerning in Arabic lookup 3 per glyph data 0" uni0666 dx=-25 dy=0 dh=-25 dv=0 dx=0 dy=0 dh=0 dv=0
PairPos2: "'kern' Horizontal Kerning in Arabic lookup 3 per glyph data 0" uni0667 dx=-100 dy=0 dh=-100 dv=0 dx=0 dy=0 dh=0 dv=0
PairPos2: "'kern' Horizontal Kerning in Arabic lookup 3 per glyph data 0" uni0661 dx=50 dy=0 dh=50 dv=0 dx=0 dy=0 dh=0 dv=0
Colour: ffff
EndChar

StartChar: uni0661
Encoding: 1633 1633 6
GlifName: uni0661
Width: 618
Flags: HMW
LayerCount: 2
Fore
SplineSet
468 0 m 1
 368 0 l 1
 368 460 298 752 153 1170 c 1
 247 1202 l 1
 394 776 468 470 468 0 c 1
EndSplineSet
PairPos2: "'kern' Horizontal Kerning in Arabic lookup 3 per glyph data 0" uni0660 dx=-50 dy=0 dh=-50 dv=0 dx=0 dy=0 dh=0 dv=0
PairPos2: "'kern' Horizontal Kerning in Arabic lookup 3 per glyph data 0" uni0665 dx=-50 dy=0 dh=-50 dv=0 dx=0 dy=0 dh=0 dv=0
Colour: ffff
EndChar

StartChar: uni0662
Encoding: 1634 1634 7
GlifName: uni0662
Width: 1046
Flags: HMW
LayerCount: 2
Fore
SplineSet
567 750 m 0
 773 750 796 933 796 1202 c 1
 896 1202 l 1
 896 961 887 650 567 650 c 0
 498 650 451 664 393 707 c 1
 441 476 468 265 468 0 c 1
 368 0 l 1
 368 467 268 797 152 1173 c 1
 248 1202 l 1
 323 956 386 750 567 750 c 0
EndSplineSet
Colour: ffff
EndChar

StartChar: uni0663
Encoding: 1635 1635 8
GlifName: uni0663
Width: 1383
Flags: HMW
LayerCount: 2
Fore
SplineSet
823 1183 m 1
 815 1116 810 1049 810 993 c 0
 810 856 815 755 961 755 c 0
 1101 755 1131 895 1131 1040 c 0
 1131 1090 1125 1144 1115 1196 c 1
 1213 1216 l 1
 1225 1159 1231 1100 1231 1042 c 0
 1231 849 1159 655 954 655 c 0
 824 655 778 721 740 817 c 1
 697 725 649 655 528 655 c 0
 475 655 437 666 396 692 c 1
 442 465 468 260 468 0 c 1
 368 0 l 1
 368 466 272 813 152 1172 c 1
 248 1201 l 1
 350 868 392 755 528 755 c 0
 690 755 705 919 723 1192 c 1
 823 1183 l 1
EndSplineSet
PairPos2: "'kern' Horizontal Kerning in Arabic lookup 3 per glyph data 0" uni0668 dx=-50 dy=0 dh=-50 dv=0 dx=0 dy=0 dh=0 dv=0
Colour: ffff
EndChar

StartChar: uni0664
Encoding: 1636 1636 9
GlifName: uni0664
Width: 997
Flags: HMW
LayerCount: 2
Fore
SplineSet
375 617 m 1
 279 655 211 768 211 889 c 0
 211 1121 416 1202 664 1202 c 1
 664 1102 l 1
 424 1102 311 1035 311 889 c 0
 311 751 437 676 671 676 c 1
 671 576 l 1
 407 576 250 402 250 250 c 0
 250 109 370 100 533 100 c 2
 797 100 l 1
 797 0 l 1
 485 0 l 2
 342 0 150 33 150 250 c 0
 150 393 240 555 375 617 c 1
EndSplineSet
PairPos2: "'kern' Horizontal Kerning in Arabic lookup 3 per glyph data 0" uni0666 dx=50 dy=0 dh=50 dv=0 dx=0 dy=0 dh=0 dv=0
Colour: ffff
EndChar

StartChar: uni0665
Encoding: 1637 1637 10
GlifName: uni0665
Width: 1196
Flags: HMW
LayerCount: 2
Fore
SplineSet
494 1202 m 1
 736 1001 1046 702 1046 364 c 0
 1046 100 861 0 601 0 c 0
 350 0 150 99 150 361 c 0
 150 607 287 803 533 1034 c 1
 498 1067 464 1098 430 1126 c 1
 494 1202 l 1
604 964 m 1
 366 742 250 568 250 361 c 0
 250 169 378 100 601 100 c 0
 831 100 946 164 946 364 c 0
 946 575 789 773 604 964 c 1
EndSplineSet
PairPos2: "'kern' Horizontal Kerning in Arabic lookup 3 per glyph data 0" uni0667 dx=-100 dy=0 dh=-100 dv=0 dx=0 dy=0 dh=0 dv=0
PairPos2: "'kern' Horizontal Kerning in Arabic lookup 3 per glyph data 0" uni0661 dx=50 dy=0 dh=50 dv=0 dx=0 dy=0 dh=0 dv=0
Colour: ffff
EndChar

StartChar: uni0666
Encoding: 1638 1638 11
GlifName: uni0666
Width: 1168
Flags: HMW
LayerCount: 2
Fore
SplineSet
189 1104 m 1
 211 1202 l 1
 335 1175 481 1161 618 1161 c 0
 703 1161 786 1167 852 1178 c 1
 910 1127 l 1
 906 1034 904 946 904 861 c 0
 904 495 931 367 1017 24 c 1
 920 0 l 1
 833 347 804 491 804 861 c 0
 804 930 805 996 808 1071 c 1
 750 1064 685 1061 618 1061 c 0
 475 1061 321 1075 189 1104 c 1
EndSplineSet
PairPos2: "'kern' Horizontal Kerning in Arabic lookup 3 per glyph data 0" uni0668 dx=-200 dy=0 dh=-200 dv=0 dx=0 dy=0 dh=0 dv=0
PairPos2: "'kern' Horizontal Kerning in Arabic lookup 3 per glyph data 0" uni066B dx=-150 dy=0 dh=-150 dv=0 dx=0 dy=0 dh=0 dv=0
PairPos2: "'kern' Horizontal Kerning in Arabic lookup 3 per glyph data 0" uni0660 dx=-200 dy=0 dh=-200 dv=0 dx=0 dy=0 dh=0 dv=0
PairPos2: "'kern' Horizontal Kerning in Arabic lookup 3 per glyph data 0" uni0665 dx=-175 dy=0 dh=-175 dv=0 dx=0 dy=0 dh=0 dv=0
PairPos2: "'kern' Horizontal Kerning in Arabic lookup 3 per glyph data 0" uni0664 dx=-50 dy=0 dh=-50 dv=0 dx=0 dy=0 dh=0 dv=0
Colour: ffff
EndChar

StartChar: uni0667
Encoding: 1639 1639 12
GlifName: uni0667
Width: 1315
Flags: HMW
LayerCount: 2
Fore
SplineSet
1075 1202 m 1
 1155 1140 l 1
 922 837 804 577 705 0 c 1
 611 0 l 1
 512 577 393 838 160 1140 c 1
 240 1202 l 1
 446 934 563 710 658 280 c 1
 752 709 869 934 1075 1202 c 1
EndSplineSet
PairPos2: "'kern' Horizontal Kerning in Arabic lookup 3 per glyph data 0" uni066B dx=-125 dy=0 dh=-125 dv=0 dx=0 dy=0 dh=0 dv=0
PairPos2: "'kern' Horizontal Kerning in Arabic lookup 3 per glyph data 0" uni0668 dx=-150 dy=0 dh=-150 dv=0 dx=0 dy=0 dh=0 dv=0
PairPos2: "'kern' Horizontal Kerning in Arabic lookup 3 per glyph data 0" uni0665 dx=-100 dy=0 dh=-100 dv=0 dx=0 dy=0 dh=0 dv=0
PairPos2: "'kern' Horizontal Kerning in Arabic lookup 3 per glyph data 0" uni0660 dx=-100 dy=0 dh=-100 dv=0 dx=0 dy=0 dh=0 dv=0
Colour: ffff
EndChar

StartChar: uni0668
Encoding: 1640 1640 13
GlifName: uni0668
Width: 1315
Flags: HMW
LayerCount: 2
Fore
SplineSet
240 0 m 1
 160 62 l 1
 393 365 511 625 610 1202 c 1
 704 1202 l 1
 803 625 922 364 1155 62 c 1
 1075 0 l 1
 869 268 752 492 657 922 c 1
 563 493 446 268 240 0 c 1
EndSplineSet
PairPos2: "'kern' Horizontal Kerning in Arabic lookup 3 per glyph data 0" uni0667 dx=-150 dy=0 dh=-150 dv=0 dx=0 dy=0 dh=0 dv=0
PairPos2: "'kern' Horizontal Kerning in Arabic lookup 3 per glyph data 0" uni0662 dx=-175 dy=0 dh=-175 dv=0 dx=0 dy=0 dh=0 dv=0
PairPos2: "'kern' Horizontal Kerning in Arabic lookup 3 per glyph data 0" uni0663 dx=-200 dy=0 dh=-200 dv=0 dx=0 dy=0 dh=0 dv=0
Colour: ffff
EndChar

StartChar: uni0669
Encoding: 1641 1641 14
GlifName: uni0669
Width: 1035
Flags: HMW
LayerCount: 2
Fore
SplineSet
681 547 m 1
 624 533 565 525 501 525 c 0
 319 525 150 595 150 801 c 0
 150 995 260 1202 467 1202 c 0
 708 1202 778 990 778 774 c 0
 778 710 778 652 779 599 c 0
 785 264 813 195 881 40 c 1
 789 0 l 1
 719 159 689 245 681 547 c 1
679 650 m 1
 678 774 l 0
 678 982 622 1102 467 1102 c 0
 342 1102 250 969 250 801 c 0
 250 673 335 625 501 625 c 0
 565 625 621 634 679 650 c 1
EndSplineSet
PairPos2: "'kern' Horizontal Kerning in Arabic lookup 3 per glyph data 0" uni0665 dx=-50 dy=0 dh=-50 dv=0 dx=0 dy=0 dh=0 dv=0
PairPos2: "'kern' Horizontal Kerning in Arabic lookup 3 per glyph data 0" uni0668 dx=-150 dy=0 dh=-150 dv=0 dx=0 dy=0 dh=0 dv=0
PairPos2: "'kern' Horizontal Kerning in Arabic lookup 3 per glyph data 0" uni066B dx=200 dy=0 dh=200 dv=0 dx=0 dy=0 dh=0 dv=0
Colour: ffff
EndChar

StartChar: uni06F4
Encoding: 1780 1780 19
GlifName: uni06F_4
Width: 1179
Flags: HMW
LayerCount: 2
Fore
SplineSet
406 646 m 1
 444 439 468 216 468 0 c 1
 368 0 l 1
 368 462 271 796 154 1172 c 1
 250 1202 l 1
 290 1105 326 989 358 864 c 1
 386 1083 548 1222 731 1222 c 0
 801 1222 872 1201 939 1164 c 1
 892 1077 l 1
 845 1106 784 1122 731 1122 c 0
 585 1122 449 1002 449 795 c 0
 449 674 592 625 739 625 c 0
 819 625 900 639 961 664 c 1
 986 574 l 1
 906 544 817 529 731 529 c 0
 600 529 476 566 406 646 c 1
EndSplineSet
PairPos2: "'kern' Horizontal Kerning in Arabic lookup 3 per glyph data 1" uni06F8 dx=-50 dy=0 dh=-50 dv=0 dx=0 dy=0 dh=0 dv=0
PairPos2: "'kern' Horizontal Kerning in Arabic lookup 3 per glyph data 1" uni06F0 dx=-25 dy=0 dh=-25 dv=0 dx=0 dy=0 dh=0 dv=0
Colour: ffff
EndChar

StartChar: uni06F5
Encoding: 1781 1781 20
GlifName: uni06F_5
Width: 1276
Flags: HMW
LayerCount: 2
Fore
SplineSet
647 99 m 1
 595 34 516 0 434 0 c 0
 288 0 150 101 150 341 c 0
 150 547 265 792 570 1036 c 1
 535 1065 497 1093 459 1120 c 1
 517 1202 l 1
 573 1163 626 1121 675 1078 c 0
 954 833 1126 574 1126 326 c 0
 1126 96 993 0 852 0 c 0
 773 0 696 35 647 99 c 1
598 274 m 1
 698 274 l 1
 698 245 l 2
 698 155 773 100 852 100 c 0
 931 100 1026 136 1026 326 c 0
 1026 520 889 742 646 969 c 1
 350 739 250 514 250 341 c 0
 250 141 350 100 434 100 c 0
 517 100 598 156 598 245 c 2
 598 274 l 1
EndSplineSet
PairPos2: "'kern' Horizontal Kerning in Arabic lookup 3 per glyph data 1" uni06F9 dx=-75 dy=0 dh=-75 dv=0 dx=0 dy=0 dh=0 dv=0
PairPos2: "'kern' Horizontal Kerning in Arabic lookup 3 per glyph data 1" uni06F7 dx=-100 dy=0 dh=-100 dv=0 dx=0 dy=0 dh=0 dv=0
PairPos2: "'kern' Horizontal Kerning in Arabic lookup 3 per glyph data 1" uni06F3 dx=-25 dy=0 dh=-25 dv=0 dx=0 dy=0 dh=0 dv=0
PairPos2: "'kern' Horizontal Kerning in Arabic lookup 3 per glyph data 1" uni06F2 dx=-25 dy=0 dh=-25 dv=0 dx=0 dy=0 dh=0 dv=0
PairPos2: "'kern' Horizontal Kerning in Arabic lookup 3 per glyph data 1" uni06F1 dx=50 dy=0 dh=50 dv=0 dx=0 dy=0 dh=0 dv=0
Colour: ffff
EndChar

StartChar: uni06F6
Encoding: 1782 1782 21
GlifName: uni06F_6
Width: 1034
Flags: HMW
LayerCount: 2
Fore
SplineSet
565 611 m 0
 679 611 767 649 840 693 c 1
 908 612 l 1
 648 437 414 255 243 0 c 1
 157 50 l 1
 284 239 432 368 605 512 c 1
 396 498 156 591 156 830 c 0
 156 1048 313 1202 514 1202 c 0
 628 1202 717 1153 776 1098 c 1
 708 1026 l 1
 665 1067 598 1102 514 1102 c 0
 369 1102 256 996 256 830 c 0
 256 684 394 611 565 611 c 0
EndSplineSet
Colour: ffff
EndChar

StartChar: GAFbar
Encoding: 1114120 -1 44
GlifName: G_A_F_bar
Width: 999
Flags: HMW
LayerCount: 2
Fore
SplineSet
821 1860 m 1
 837 1786 l 1
 579 1733 316 1629 95 1488 c 1
 55 1552 l 1
 284 1699 555 1805 821 1860 c 1
EndSplineSet
Colour: ff00ff
EndChar

StartChar: uni060C
Encoding: 1548 1548 58
GlifName: uni060C_
Width: 550
Flags: HMW
LayerCount: 2
Fore
SplineSet
273 433 m 1
 329 394 l 1
 294 336 256 227 256 172 c 1
 309 172 367 148 367 88 c 0
 367 48 345 0 279 0 c 0
 216 0 183 45 183 111 c 0
 183 229 218 348 273 433 c 1
EndSplineSet
EndChar

StartChar: uni0615
Encoding: 1557 1557 60
GlifName: uni0615
Width: 0
Flags: HMW
AnchorPoint: "Anchor-5" 0 1359 mark 0
AnchorPoint: "Anchor-4" 0 1359 mark 0
AnchorPoint: "Anchor-1" 0 1359 mark 0
AnchorPoint: "Anchor-1" 0 1573 basemark 0
LayerCount: 2
Fore
SplineSet
266 1712 m 0
 266 1552 69 1542 -147 1540 c 2
 -266 1540 l 1
 -266 1600 l 1
 -146 1600 l 1
 -146 2033 l 1
 -86 2033 l 1
 -86 1714 l 1
 -21 1801 56 1846 128 1846 c 0
 204 1846 266 1794 266 1712 c 0
-85 1601 m 1
 124 1606 206 1634 206 1712 c 0
 206 1760 176 1786 128 1786 c 0
 69 1786 -17 1734 -85 1601 c 1
EndSplineSet
Colour: ff00
EndChar

StartChar: less
Encoding: 60 60 62
GlifName: less
Width: 775
VWidth: 1928
Flags: HMW
LayerCount: 2
Fore
SplineSet
571 1007 m 1
 623 953 l 1
 232 583 l 1
 623 212 l 1
 571 158 l 1
 124 583 l 1
 571 1007 l 1
EndSplineSet
Colour: ff00ff
EndChar

StartChar: greater
Encoding: 62 62 64
GlifName: greater
Width: 775
VWidth: 1928
Flags: HMW
LayerCount: 2
Fore
SplineSet
176 158 m 1
 124 212 l 1
 515 582 l 1
 124 953 l 1
 176 1007 l 1
 623 582 l 1
 176 158 l 1
EndSplineSet
Colour: ff00
EndChar

StartChar: braceleft
Encoding: 123 123 65
GlifName: braceleft
Width: 656
Flags: HMW
LayerCount: 2
Fore
SplineSet
247 696 m 1
 330 645 385 560 385 456 c 2
 385 168 l 2
 385 112 419 86 472 86 c 2
 606 86 l 1
 606 0 l 1
 472 0 l 2
 363 0 285 72 285 168 c 2
 285 456 l 2
 285 558 217 627 134 651 c 2
 100 661 l 1
 100 731 l 1
 134 741 l 2
 217 765 285 834 285 936 c 2
 285 1223 l 2
 285 1319 363 1389 472 1389 c 2
 606 1389 l 1
 606 1305 l 1
 472 1305 l 2
 419 1305 385 1279 385 1223 c 2
 385 936 l 2
 385 831 329 746 247 696 c 1
EndSplineSet
Colour: ffff00
EndChar

StartChar: braceright
Encoding: 125 125 66
GlifName: braceright
Width: 656
Flags: HMW
LayerCount: 2
Fore
SplineSet
459 696 m 1
 377 746 321 831 321 936 c 2
 321 1223 l 2
 321 1279 287 1305 234 1305 c 2
 100 1305 l 1
 100 1389 l 1
 234 1389 l 2
 343 1389 421 1319 421 1223 c 2
 421 936 l 2
 421 834 489 765 572 741 c 2
 606 731 l 1
 606 661 l 1
 572 651 l 2
 489 627 421 558 421 456 c 2
 421 168 l 2
 421 72 343 0 234 0 c 2
 100 0 l 1
 100 86 l 1
 234 86 l 2
 287 86 321 112 321 168 c 2
 321 456 l 2
 321 560 376 645 459 696 c 1
EndSplineSet
Colour: ffff00
EndChar

StartChar: uni061F
Encoding: 1567 1567 69
GlifName: uni061F_
Width: 1067
Flags: HMW
LayerCount: 2
Fore
SplineSet
604 405 m 1
 504 405 l 1
 504 581 416 646 325 706 c 0
 238 763 150 840 150 983 c 0
 150 1200 291 1388 539 1388 c 0
 793 1388 917 1219 917 1024 c 0
 917 998 916 971 912 942 c 1
 812 954 l 1
 816 977 817 1000 817 1024 c 0
 817 1191 725 1304 539 1304 c 0
 365 1304 250 1174 250 983 c 0
 250 874 306 827 387 774 c 0
 486 708 604 613 604 405 c 1
EndSplineSet
Refer: 0 46 N -1 0 0 1 828 0 2
Colour: ffff00
EndChar

StartChar: uni066C
Encoding: 1644 1644 87
GlifName: uni066C_
Width: 587
Flags: HMW
LayerCount: 2
Fore
SplineSet
179 735 m 1
 121 804 l 1
 186 884 279 1029 300 1110 c 1
 242 1110 155 1160 155 1247 c 0
 155 1321 210 1386 285 1386 c 0
 362 1386 432 1337 432 1219 c 0
 432 1094 286 848 179 735 c 1
EndSplineSet
EndChar

StartChar: uni066D
Encoding: 1645 1645 88
GlifName: uni066D_
Width: 910
Flags: HMW
LayerCount: 2
Fore
SplineSet
492 576 m 1
 418 576 l 1
 418 916 l 1
 124 747 l 1
 86 811 l 1
 380 982 l 1
 86 1152 l 1
 124 1216 l 1
 418 1047 l 1
 418 1386 l 1
 492 1386 l 1
 492 1047 l 1
 786 1216 l 1
 824 1152 l 1
 530 982 l 1
 824 811 l 1
 786 747 l 1
 492 916 l 1
 492 576 l 1
EndSplineSet
Colour: ff00ff
EndChar

StartChar: zero
Encoding: 48 48 138
GlifName: zero
Width: 1169
Flags: HMW
LayerCount: 2
Fore
SplineSet
585 -43 m 0
 197 -43 125 400 125 681 c 0
 125 962 197 1403 585 1403 c 0
 973 1403 1044 962 1044 681 c 0
 1044 400 973 -43 585 -43 c 0
585 43 m 0
 861 43 944 386 944 681 c 0
 944 976 861 1319 585 1319 c 0
 309 1319 225 976 225 681 c 0
 225 386 309 43 585 43 c 0
EndSplineSet
Colour: ffff00
EndChar

StartChar: one
Encoding: 49 49 139
GlifName: one
Width: 882
Flags: HMW
LayerCount: 2
Fore
SplineSet
202 1054 m 1
 200 1138 l 1
 292 1139 l 2
 441 1141 493 1166 532 1224 c 9
 532 1386 l 1
 632 1386 l 1
 632 -25 l 1
 532 -25 l 1
 532 1110 l 1
 473 1068 393 1056 294 1055 c 2
 202 1054 l 1
EndSplineSet
Colour: ffff00
EndChar

StartChar: two
Encoding: 50 50 140
GlifName: two
Width: 1126
Flags: HMW
LayerCount: 2
Fore
SplineSet
1026 0 m 1
 110 0 l 1
 110 103 l 0
 110 348 381 486 634 578 c 0
 852 657 901 807 901 955 c 0
 901 1175 731 1280 561 1280 c 0
 404 1280 222 1167 222 935 c 1
 122 935 l 1
 122 1211 348 1366 561 1366 c 0
 783 1366 1001 1221 1001 955 c 0
 1001 791 938 595 672 498 c 0
 417 406 210 284 210 103 c 2
 210 86 l 1
 1026 86 l 1
 1026 0 l 1
EndSplineSet
Colour: ffff00
EndChar

StartChar: three
Encoding: 51 51 141
GlifName: three
Width: 1109
Flags: HMW
LayerCount: 2
Fore
SplineSet
100 383 m 1
 200 383 l 1
 200 173 372 83 548 83 c 0
 723 83 899 159 899 371 c 0
 899 599 730 683 539 683 c 2
 466 683 l 1
 466 768 l 1
 539 768 l 2
 730 768 860 858 860 1013 c 0
 860 1198 713 1279 561 1279 c 0
 405 1279 259 1205 259 1022 c 1
 159 1022 l 1
 159 1258 366 1364 561 1364 c 0
 758 1364 960 1248 960 1013 c 0
 960 882 884 781 764 727 c 1
 900 671 999 552 999 371 c 0
 999 103 757 -3 548 -3 c 0
 330 -3 100 121 100 383 c 1
EndSplineSet
Colour: ffff00
EndChar

StartChar: four
Encoding: 52 52 142
GlifName: four
Width: 1117
Flags: HMW
LayerCount: 2
Fore
SplineSet
764 409 m 1
 764 1235 l 1
 184 409 l 1
 764 409 l 1
1077 409 m 1
 1077 325 l 1
 864 325 l 1
 864 -25 l 1
 764 -25 l 1
 764 325 l 1
 80 325 l 1
 80 427 l 1
 738 1363 l 1
 864 1363 l 1
 864 409 l 1
 1077 409 l 1
EndSplineSet
Colour: ffff00
EndChar

StartChar: five
Encoding: 53 53 143
GlifName: five
Width: 1162
Flags: HMW
LayerCount: 2
Fore
SplineSet
170 376 m 1
 270 376 l 1
 270 195 381 83 568 83 c 0
 809 83 937 199 937 476 c 0
 937 727 806 869 568 869 c 0
 470 869 360 827 262 763 c 1
 188 800 l 1
 242 1363 l 1
 1062 1363 l 1
 1062 1279 l 1
 334 1279 l 1
 296 887 l 1
 388 933 480 955 568 955 c 0
 874 955 1037 753 1037 476 c 0
 1037 171 871 -3 568 -3 c 0
 317 -3 170 163 170 376 c 1
EndSplineSet
Colour: ffff00
EndChar

StartChar: six
Encoding: 54 54 144
GlifName: six
Width: 1125
Flags: HMW
LayerCount: 2
Fore
SplineSet
594 769 m 0
 482 769 348 717 231 608 c 1
 239 317 312 83 593 83 c 0
 798 83 925 244 925 411 c 0
 925 648 771 769 594 769 c 0
594 853 m 0
 837 853 1025 682 1025 411 c 0
 1025 214 870 -3 593 -3 c 0
 187 -3 130 366 130 664 c 0
 130 1092 315 1363 623 1363 c 0
 776 1363 903 1316 1010 1223 c 1
 938 1163 l 1
 847 1242 750 1279 623 1279 c 0
 417 1279 248 1105 231 727 c 1
 347 812 475 853 594 853 c 0
EndSplineSet
Colour: ffff00
EndChar

StartChar: seven
Encoding: 55 55 145
GlifName: seven
Width: 1062
Flags: HMW
LayerCount: 2
Fore
SplineSet
80 1279 m 1
 80 1363 l 1
 918 1363 l 1
 952 1271 l 1
 361 -40 l 1
 267 -10 l 1
 849 1279 l 1
 80 1279 l 1
EndSplineSet
Colour: ffff00
EndChar

StartChar: eight
Encoding: 56 56 146
GlifName: eight
Width: 1057
Flags: HMW
LayerCount: 2
Fore
SplineSet
793 1039 m 0
 793 1159 714 1279 529 1279 c 0
 344 1279 264 1159 264 1039 c 0
 264 869 343 783 528 783 c 0
 712 783 793 868 793 1039 c 0
200 361 m 0
 200 195 321 83 529 83 c 0
 737 83 857 195 857 361 c 0
 857 551 704 697 528 697 c 0
 346 697 200 554 200 361 c 0
723 737 m 1
 865 666 957 520 957 361 c 0
 957 153 791 -3 529 -3 c 0
 267 -3 100 153 100 361 c 0
 100 522 190 668 332 738 c 1
 219 794 164 903 164 1039 c 0
 164 1189 276 1363 529 1363 c 0
 782 1363 893 1189 893 1039 c 0
 893 901 837 792 723 737 c 1
EndSplineSet
Colour: ffff00
EndChar

StartChar: nine
Encoding: 57 57 147
GlifName: nine
Width: 1125
Flags: HMW
LayerCount: 2
Fore
SplineSet
894 753 m 1
 886 1044 813 1279 532 1279 c 0
 327 1279 200 1117 200 950 c 0
 200 713 354 593 531 593 c 0
 643 593 777 644 894 753 c 1
894 634 m 1
 778 549 650 507 531 507 c 0
 288 507 100 679 100 950 c 0
 100 1147 255 1363 532 1363 c 0
 938 1363 995 995 995 697 c 0
 995 249 808 -3 502 -3 c 0
 349 -3 222 45 115 138 c 1
 187 198 l 1
 278 119 375 83 502 83 c 0
 710 83 877 239 894 634 c 1
EndSplineSet
Colour: ffff00
EndChar

StartChar: exclam
Encoding: 33 33 245
GlifName: exclam
Width: 610
Flags: HMW
LayerCount: 2
Fore
SplineSet
355 391 m 1
 255 391 l 1
 255 1411 l 1
 355 1411 l 1
 355 391 l 1
EndSplineSet
Refer: 0 46 N 1 0 0 1 30 0 2
Colour: ffff
EndChar

StartChar: uni066B
Encoding: 1643 1643 246
GlifName: uni066B_
Width: 787
Flags: HMW
LayerCount: 2
Fore
SplineSet
221 -310 m 1
 127 -274 l 1
 575 870 l 1
 669 834 l 1
 221 -310 l 1
EndSplineSet
PairPos2: "'kern' Horizontal Kerning in Arabic lookup 3 per glyph data 1" uni066B dx=-50 dy=0 dh=-50 dv=0 dx=0 dy=0 dh=0 dv=0
PairPos2: "'kern' Horizontal Kerning in Arabic lookup 3 per glyph data 1" uni06F2 dx=-100 dy=0 dh=-100 dv=0 dx=0 dy=0 dh=0 dv=0
PairPos2: "'kern' Horizontal Kerning in Arabic lookup 3 per glyph data 1" uni06F3 dx=-75 dy=0 dh=-75 dv=0 dx=0 dy=0 dh=0 dv=0
PairPos2: "'kern' Horizontal Kerning in Arabic lookup 3 per glyph data 1" uni06F0 dx=-50 dy=0 dh=-50 dv=0 dx=0 dy=0 dh=0 dv=0
PairPos2: "'kern' Horizontal Kerning in Arabic lookup 3 per glyph data 1" uni06F7 dx=-100 dy=0 dh=-100 dv=0 dx=0 dy=0 dh=0 dv=0
PairPos2: "'kern' Horizontal Kerning in Arabic lookup 3 per glyph data 0" uni0667 dx=-100 dy=0 dh=-100 dv=0 dx=0 dy=0 dh=0 dv=0
PairPos2: "'kern' Horizontal Kerning in Arabic lookup 3 per glyph data 0" uni0662 dx=-100 dy=0 dh=-100 dv=0 dx=0 dy=0 dh=0 dv=0
PairPos2: "'kern' Horizontal Kerning in Arabic lookup 3 per glyph data 0" uni0663 dx=-150 dy=0 dh=-150 dv=0 dx=0 dy=0 dh=0 dv=0
Colour: ffff
EndChar

StartChar: uniE000
Encoding: 57344 57344 247
GlifName: uniE_000
Width: 120
Flags: HMW
LayerCount: 2
Fore
SplineSet
0 100 m 0
 120 100 l 1
 120 0 l 1
 0 0 l 0
 -28 0 -50 22 -50 50 c 0
 -50 78 -28 100 0 100 c 0
EndSplineSet
Colour: ffff
EndChar

StartChar: uniE001
Encoding: 57345 57345 248
GlifName: uniE_001
Width: 320
Flags: HMW
LayerCount: 2
Fore
SplineSet
0 100 m 0
 320 100 l 1
 320 0 l 1
 0 0 l 0
 -28 0 -50 22 -50 50 c 0
 -50 78 -28 100 0 100 c 0
EndSplineSet
Colour: ffff
EndChar

StartChar: uniE002
Encoding: 57346 57346 249
GlifName: uniE_002
Width: 450
Flags: HMW
LayerCount: 2
Fore
SplineSet
0 100 m 0
 450 100 l 1
 450 0 l 1
 0 0 l 0
 -28 0 -50 22 -50 50 c 0
 -50 78 -28 100 0 100 c 0
EndSplineSet
Colour: ffff
EndChar

StartChar: simpledot
Encoding: 1114127 -1 250
GlifName: simpledot
Width: 2136
Flags: HMW
LayerCount: 2
Fore
SplineSet
1080 107 m 1
 1187 214 l 1
 1294 107 l 1
 1187 0 l 1
 1080 107 l 1
EndSplineSet
Colour: ff0000
EndChar

StartChar: hyphen
Encoding: 45 45 251
GlifName: hyphen
Width: 993
Flags: HMW
LayerCount: 2
Fore
SplineSet
873 527 m 1
 873 443 l 1
 120 443 l 1
 120 527 l 1
 873 527 l 1
EndSplineSet
Colour: ffff00
EndChar

StartChar: numbersign
Encoding: 35 35 253
GlifName: numbersign
Width: 1683
Flags: HMW
LayerCount: 2
Fore
SplineSet
395 -36 m 1
 299 -14 l 1
 432 423 l 1
 120 423 l 1
 120 509 l 1
 458 509 l 1
 574 889 l 1
 212 889 l 1
 212 973 l 1
 600 973 l 1
 730 1397 l 1
 826 1375 l 1
 704 973 l 1
 1148 973 l 1
 1278 1397 l 1
 1374 1375 l 1
 1252 973 l 1
 1563 973 l 1
 1563 889 l 1
 1226 889 l 1
 1110 509 l 1
 1471 509 l 1
 1471 423 l 1
 1084 423 l 1
 943 -36 l 1
 847 -14 l 1
 980 423 l 1
 536 423 l 1
 395 -36 l 1
1122 889 m 1
 678 889 l 1
 562 509 l 1
 1006 509 l 1
 1122 889 l 1
EndSplineSet
Colour: ffff00
EndChar

StartChar: ampersand
Encoding: 38 38 256
GlifName: ampersand
Width: 1138
Flags: HMW
LayerCount: 2
Fore
SplineSet
443 773 m 1
 603 857 739 930 739 1088 c 0
 739 1189 659 1279 519 1279 c 0
 372 1279 290 1181 290 1058 c 0
 290 997 309 952 349 899 c 2
 443 773 l 1
786 157 m 1
 413 655 l 1
 291 583 200 502 200 351 c 0
 200 181 322 83 520 83 c 0
 631 83 719 110 786 157 c 1
912 146 m 1
 1023 -2 l 1
 939 -48 l 1
 840 85 l 1
 755 28 645 -3 520 -3 c 0
 272 -3 100 137 100 351 c 0
 100 541 225 648 359 727 c 1
 266 852 l 1
 213 916 190 986 190 1058 c 0
 190 1213 304 1363 519 1363 c 0
 719 1363 839 1229 839 1088 c 0
 839 879 653 782 497 702 c 1
 855 223 l 1
 908 290 938 380 938 491 c 1
 1038 491 l 1
 1038 353 995 233 912 146 c 1
EndSplineSet
Colour: ffff00
EndChar

StartChar: quotesingle
Encoding: 39 39 257
GlifName: quotesingle
Width: 400
Flags: HMW
LayerCount: 2
Fore
SplineSet
160 1386 m 1
 240 1386 l 1
 240 871 l 1
 160 871 l 1
 160 1386 l 1
EndSplineSet
Colour: ff00
EndChar

StartChar: plus
Encoding: 43 43 258
GlifName: plus
Width: 993
Flags: HMW
LayerCount: 2
Fore
SplineSet
873 527 m 1
 873 443 l 1
 546 443 l 1
 546 109 l 1
 446 109 l 1
 446 443 l 1
 120 443 l 1
 120 527 l 1
 446 527 l 1
 446 861 l 1
 546 861 l 1
 546 527 l 1
 873 527 l 1
EndSplineSet
Colour: ffff00
EndChar

StartChar: comma
Encoding: 44 44 259
GlifName: comma
Width: 453
Flags: HMW
LayerCount: 2
Fore
SplineSet
223 -223 m 1
 174 -185 l 1
 197 -159 265 -61 265 27 c 1
 194 27 155 59 155 125 c 0
 155 180 196 217 245 217 c 0
 307 217 347 175 347 92 c 0
 347 -47 276 -158 223 -223 c 1
EndSplineSet
EndChar

StartChar: question
Encoding: 63 63 261
GlifName: question
Width: 1067
Flags: HMW
LayerCount: 2
Fore
SplineSet
255 975 m 1
 155 963 l 1
 151 992 150 1019 150 1045 c 0
 150 1240 274 1409 528 1409 c 0
 776 1409 917 1221 917 1004 c 0
 917 861 829 784 742 727 c 0
 651 667 563 602 563 426 c 1
 463 426 l 1
 463 634 581 729 680 795 c 0
 761 848 817 895 817 1004 c 0
 817 1195 702 1325 528 1325 c 0
 342 1325 250 1212 250 1045 c 0
 250 1021 251 998 255 975 c 1
EndSplineSet
Refer: 0 46 N -1 0 0 1 798 0 2
Colour: ffff00
EndChar

StartChar: at
Encoding: 64 64 262
GlifName: at
Width: 2161
Flags: HMW
LayerCount: 2
Fore
SplineSet
1096 1013 m 0
 1292 1013 1387 949 1479 877 c 1
 1426 286 l 2
 1425 276 1425 268 1425 257 c 0
 1425 133 1490 64 1604 64 c 0
 1785 64 1911 262 1911 508 c 0
 1911 976 1532 1346 1081 1346 c 0
 630 1346 250 976 250 508 c 0
 250 40 629 -330 1081 -330 c 0
 1159 -330 1235 -319 1307 -298 c 1
 1339 -378 l 1
 1257 -401 1171 -414 1081 -414 c 0
 561 -414 150 4 150 508 c 0
 150 1012 560 1432 1081 1432 c 0
 1602 1432 2011 1012 2011 508 c 0
 2011 256 1883 -20 1604 -20 c 0
 1465 -20 1376 53 1341 154 c 1
 1259 37 1139 -20 1013 -20 c 0
 806 -20 602 111 602 430 c 0
 602 807 827 1013 1096 1013 c 0
1096 929 m 0
 901 929 702 783 702 430 c 0
 702 145 864 64 1013 64 c 0
 1151 64 1315 166 1341 457 c 2
 1375 843 l 1
 1308 893 1239 929 1096 929 c 0
EndSplineSet
Colour: ffff00
EndChar

StartChar: A
Encoding: 65 65 263
GlifName: A_
Width: 1267
Flags: HMW
LayerCount: 2
Fore
SplineSet
330 499 m 1
 938 499 l 1
 634 1274 l 1
 330 499 l 1
134 0 m 1
 30 0 l 1
 574 1389 l 1
 694 1389 l 1
 1237 0 l 1
 1133 0 l 1
 971 413 l 1
 297 413 l 1
 134 0 l 1
EndSplineSet
Colour: ffff00
EndChar

StartChar: B
Encoding: 66 66 264
GlifName: B_
Width: 1266
Flags: HMW
LayerCount: 2
Fore
SplineSet
190 1389 m 1
 705 1389 l 2
 922 1389 1093 1208 1093 1002 c 0
 1093 871 1024 762 919 699 c 1
 1060 644 1156 514 1156 359 c 0
 1156 153 984 0 768 0 c 2
 190 0 l 1
 190 1389 l 1
290 642 m 1
 290 86 l 1
 768 86 l 2
 924 86 1056 193 1056 359 c 0
 1056 526 922 642 768 642 c 2
 290 642 l 1
705 726 m 2
 861 726 993 836 993 1002 c 0
 993 1168 860 1305 705 1305 c 2
 290 1305 l 1
 290 726 l 1
 705 726 l 2
EndSplineSet
Colour: ffff00
EndChar

StartChar: C
Encoding: 67 67 265
GlifName: C_
Width: 1289
Flags: HMW
LayerCount: 2
Fore
SplineSet
1097 187 m 1
 1169 129 l 1
 1067 37 930 -20 761 -20 c 0
 331 -20 130 332 130 704 c 0
 130 1076 332 1409 761 1409 c 0
 929 1409 1067 1354 1169 1262 c 1
 1097 1204 l 1
 1013 1280 903 1325 761 1325 c 0
 408 1325 230 1056 230 704 c 0
 230 352 409 66 761 66 c 0
 902 66 1013 111 1097 187 c 1
EndSplineSet
Colour: ffff00
EndChar

StartChar: D
Encoding: 68 68 266
GlifName: D_
Width: 1342
Flags: HMW
LayerCount: 2
Fore
SplineSet
580 1389 m 2
 1015 1389 1212 1059 1212 681 c 0
 1212 303 1015 0 580 0 c 2
 190 0 l 1
 190 1389 l 1
 580 1389 l 2
580 1305 m 2
 290 1305 l 1
 290 86 l 1
 580 86 l 2
 939 86 1112 323 1112 681 c 0
 1112 1039 939 1305 580 1305 c 2
EndSplineSet
Colour: ffff00
EndChar

StartChar: E
Encoding: 69 69 267
GlifName: E_
Width: 1091
Flags: HMW
LayerCount: 2
Fore
SplineSet
1021 86 m 1
 1021 0 l 1
 190 0 l 1
 190 1389 l 1
 1021 1389 l 1
 1021 1305 l 1
 290 1305 l 1
 290 723 l 1
 1021 723 l 1
 1021 639 l 1
 290 639 l 1
 290 86 l 1
 1021 86 l 1
EndSplineSet
Colour: ffff00
EndChar

StartChar: F
Encoding: 70 70 268
GlifName: F_
Width: 1081
Flags: HMW
LayerCount: 2
Fore
SplineSet
290 0 m 1
 190 0 l 1
 190 1389 l 1
 1021 1389 l 1
 1021 1305 l 1
 290 1305 l 1
 290 723 l 1
 905 723 l 1
 905 639 l 1
 290 639 l 1
 290 0 l 1
EndSplineSet
Colour: ffff00
EndChar

StartChar: G
Encoding: 71 71 269
GlifName: G_
Width: 1460
Flags: HMW
LayerCount: 2
Fore
SplineSet
762 622 m 1
 762 706 l 1
 1290 709 l 1
 1290 418 l 2
 1290 183 1177 -20 791 -20 c 0
 361 -20 160 332 160 704 c 0
 160 1076 362 1409 791 1409 c 0
 958 1409 1122 1356 1226 1262 c 1
 1154 1204 l 1
 1072 1278 934 1325 791 1325 c 0
 438 1325 260 1056 260 704 c 0
 260 352 439 66 791 66 c 0
 1115 66 1190 209 1190 418 c 2
 1190 623 l 1
 762 622 l 1
EndSplineSet
Colour: ffff00
EndChar

StartChar: H
Encoding: 72 72 270
GlifName: H_
Width: 1349
Flags: HMW
LayerCount: 2
Fore
SplineSet
1059 1389 m 1
 1159 1389 l 1
 1159 0 l 1
 1059 0 l 1
 1059 661 l 1
 290 661 l 1
 290 0 l 1
 190 0 l 1
 190 1389 l 1
 290 1389 l 1
 290 745 l 1
 1059 745 l 1
 1059 1389 l 1
EndSplineSet
Colour: ffff00
EndChar

StartChar: I
Encoding: 73 73 271
GlifName: I_
Width: 560
Flags: HMW
LayerCount: 2
Fore
SplineSet
330 0 m 1
 230 0 l 1
 230 1389 l 1
 330 1389 l 1
 330 0 l 1
EndSplineSet
Colour: ffff00
EndChar

StartChar: J
Encoding: 74 74 272
GlifName: J_
Width: 866
Flags: HMW
LayerCount: 2
Fore
SplineSet
80 28 m 1
 132 100 l 1
 175 77 230 66 292 66 c 0
 452 66 576 131 576 358 c 2
 576 1389 l 1
 676 1389 l 1
 676 358 l 2
 676 93 502 -20 292 -20 c 0
 216 -20 143 -5 80 28 c 1
EndSplineSet
Colour: ffff00
EndChar

StartChar: K
Encoding: 75 75 273
GlifName: K_
Width: 1210
Flags: HMW
LayerCount: 2
Fore
SplineSet
1032 1389 m 1
 1160 1389 l 1
 524 710 l 1
 1160 0 l 1
 1036 0 l 1
 460 642 l 1
 290 461 l 1
 290 0 l 1
 190 0 l 1
 190 1389 l 1
 290 1389 l 1
 290 597 l 1
 1032 1389 l 1
EndSplineSet
Colour: ffff00
EndChar

StartChar: L
Encoding: 76 76 274
GlifName: L_
Width: 1071
Flags: HMW
LayerCount: 2
Fore
SplineSet
1021 86 m 1
 1021 0 l 1
 190 0 l 1
 190 1389 l 1
 290 1389 l 1
 290 86 l 1
 1021 86 l 1
EndSplineSet
Colour: ffff00
EndChar

StartChar: M
Encoding: 77 77 275
GlifName: M_
Width: 1795
Flags: HMW
LayerCount: 2
Fore
SplineSet
290 0 m 1
 190 0 l 1
 190 1389 l 1
 313 1389 l 1
 872 129 l 1
 1484 1389 l 1
 1605 1389 l 1
 1605 0 l 1
 1505 0 l 1
 1505 1207 l 1
 920 0 l 1
 822 0 l 1
 290 1197 l 1
 290 0 l 1
EndSplineSet
Colour: ffff00
EndChar

StartChar: N
Encoding: 78 78 276
GlifName: N_
Width: 1396
Flags: HMW
LayerCount: 2
Fore
SplineSet
1106 1389 m 1
 1206 1389 l 1
 1206 0 l 1
 1092 0 l 1
 290 1232 l 1
 290 0 l 1
 190 0 l 1
 190 1389 l 1
 303 1389 l 1
 1106 157 l 1
 1106 1389 l 1
EndSplineSet
Colour: ffff00
EndChar

StartChar: O
Encoding: 79 79 277
GlifName: O_
Width: 1512
Flags: HMW
LayerCount: 2
Fore
SplineSet
756 1409 m 0
 1185 1409 1387 1053 1387 681 c 0
 1387 309 1186 -20 756 -20 c 0
 326 -20 125 309 125 681 c 0
 125 1053 327 1409 756 1409 c 0
756 1325 m 0
 403 1325 225 1033 225 681 c 0
 225 329 404 66 756 66 c 0
 1108 66 1287 329 1287 681 c 0
 1287 1033 1109 1325 756 1325 c 0
EndSplineSet
Colour: ffff00
EndChar

StartChar: P
Encoding: 80 80 278
GlifName: P_
Width: 1193
Flags: HMW
LayerCount: 2
Fore
SplineSet
290 0 m 1
 190 0 l 1
 190 1389 l 1
 705 1389 l 2
 922 1389 1093 1231 1093 1025 c 0
 1093 819 921 665 705 665 c 2
 290 665 l 1
 290 0 l 1
290 1305 m 1
 290 749 l 1
 705 749 l 2
 861 749 993 859 993 1025 c 0
 993 1191 860 1305 705 1305 c 2
 290 1305 l 1
EndSplineSet
Colour: ffff00
EndChar

StartChar: R
Encoding: 82 82 280
GlifName: R_
Width: 1283
Flags: HMW
LayerCount: 2
Fore
SplineSet
190 1389 m 1
 705 1389 l 2
 922 1389 1093 1230 1093 1024 c 0
 1093 882 1011 764 890 705 c 1
 1012 643 1093 523 1093 381 c 2
 1093 0 l 1
 993 0 l 1
 993 381 l 2
 993 548 859 664 705 664 c 2
 290 664 l 1
 290 0 l 1
 190 0 l 1
 190 1389 l 1
290 748 m 1
 705 748 l 2
 861 748 993 858 993 1024 c 0
 993 1190 860 1305 705 1305 c 2
 290 1305 l 1
 290 748 l 1
EndSplineSet
Colour: ffff00
EndChar

StartChar: S
Encoding: 83 83 281
GlifName: S_
Width: 1126
Flags: HMW
LayerCount: 2
Fore
SplineSet
90 374 m 1
 190 374 l 1
 190 169 381 66 577 66 c 0
 766 66 936 152 936 347 c 0
 936 517 770 588 557 647 c 0
 361 701 120 816 120 1044 c 0
 120 1283 321 1409 550 1409 c 0
 789 1409 1006 1263 1006 1016 c 1
 906 1016 l 1
 906 1215 741 1325 550 1325 c 0
 365 1325 220 1233 220 1044 c 0
 220 884 380 785 588 727 c 0
 789 672 1036 585 1036 347 c 0
 1036 94 802 -20 577 -20 c 0
 343 -20 90 113 90 374 c 1
EndSplineSet
Colour: ffff00
EndChar

StartChar: T
Encoding: 84 84 282
GlifName: T_
Width: 1200
Flags: HMW
LayerCount: 2
Fore
SplineSet
650 0 m 1
 550 0 l 1
 550 1305 l 1
 50 1305 l 1
 50 1389 l 1
 1150 1389 l 1
 1150 1305 l 1
 650 1305 l 1
 650 0 l 1
EndSplineSet
Colour: ffff00
EndChar

StartChar: U
Encoding: 85 85 283
GlifName: U_
Width: 1336
Flags: HMW
LayerCount: 2
Fore
SplineSet
1056 1389 m 1
 1156 1389 l 1
 1156 436 l 2
 1156 165 937 -20 668 -20 c 0
 399 -20 180 165 180 436 c 2
 180 1389 l 1
 280 1389 l 1
 280 436 l 2
 280 205 457 66 668 66 c 0
 879 66 1056 205 1056 436 c 2
 1056 1389 l 1
EndSplineSet
Colour: ffff00
EndChar

StartChar: V
Encoding: 86 86 284
GlifName: V_
Width: 1267
Flags: HMW
LayerCount: 2
Fore
SplineSet
1133 1389 m 1
 1237 1389 l 1
 684 0 l 1
 582 0 l 1
 30 1389 l 1
 134 1389 l 1
 633 138 l 1
 1133 1389 l 1
EndSplineSet
Colour: ffff00
EndChar

StartChar: W
Encoding: 87 87 285
GlifName: W_
Width: 1916
Flags: HMW
LayerCount: 2
Fore
SplineSet
1752 1389 m 1
 1856 1389 l 1
 1442 0 l 1
 1327 0 l 1
 958 1231 l 1
 588 0 l 1
 473 0 l 1
 60 1389 l 1
 164 1389 l 1
 531 157 l 1
 902 1389 l 1
 1014 1389 l 1
 1384 157 l 1
 1752 1389 l 1
EndSplineSet
Colour: ffff00
EndChar

StartChar: X
Encoding: 88 88 286
GlifName: X_
Width: 1160
Flags: HMW
LayerCount: 2
Fore
SplineSet
1110 0 m 1
 996 0 l 1
 580 595 l 1
 164 0 l 1
 50 0 l 1
 522 681 l 1
 50 1389 l 1
 164 1389 l 1
 580 766 l 1
 996 1389 l 1
 1110 1389 l 1
 638 681 l 1
 1110 0 l 1
EndSplineSet
Colour: ffff00
EndChar

StartChar: Y
Encoding: 89 89 287
GlifName: Y_
Width: 1120
Flags: HMW
LayerCount: 2
Fore
SplineSet
976 1389 m 1
 1090 1389 l 1
 610 635 l 1
 610 0 l 1
 510 0 l 1
 510 635 l 1
 30 1389 l 1
 144 1389 l 1
 560 735 l 1
 976 1389 l 1
EndSplineSet
Colour: ffff00
EndChar

StartChar: Z
Encoding: 90 90 288
GlifName: Z_
Width: 1280
Flags: HMW
LayerCount: 2
Fore
SplineSet
90 1305 m 1
 90 1389 l 1
 1190 1389 l 1
 1190 1285 l 1
 195 86 l 1
 1190 86 l 1
 1190 0 l 1
 90 0 l 1
 90 105 l 1
 1085 1305 l 1
 90 1305 l 1
EndSplineSet
Colour: ffff00
EndChar

StartChar: bracketleft
Encoding: 91 91 289
GlifName: bracketleft
Width: 642
Flags: HMW
LayerCount: 2
Fore
SplineSet
542 86 m 1
 542 0 l 1
 170 0 l 1
 170 1389 l 1
 542 1389 l 1
 542 1305 l 1
 270 1305 l 1
 270 86 l 1
 542 86 l 1
EndSplineSet
Colour: ffff00
EndChar

StartChar: backslash
Encoding: 92 92 290
GlifName: backslash
Width: 1019
Flags: HMW
LayerCount: 2
Fore
SplineSet
914 -2 m 1
 824 -48 l 1
 105 1363 l 1
 195 1409 l 1
 914 -2 l 1
EndSplineSet
Colour: ffff
EndChar

StartChar: bracketright
Encoding: 93 93 291
GlifName: bracketright
Width: 642
Flags: HMW
LayerCount: 2
Fore
SplineSet
100 1305 m 1
 100 1389 l 1
 472 1389 l 1
 472 0 l 1
 100 0 l 1
 100 86 l 1
 372 86 l 1
 372 1305 l 1
 100 1305 l 1
EndSplineSet
Colour: ffff00
EndChar

StartChar: asciicircum
Encoding: 94 94 292
GlifName: asciicircum
Width: 704
Flags: HMW
LayerCount: 2
Fore
SplineSet
608 1137 m 1
 560 1099 l 1
 352 1362 l 1
 144 1099 l 1
 96 1137 l 1
 317 1416 l 1
 387 1416 l 1
 608 1137 l 1
EndSplineSet
Colour: ff00
EndChar

StartChar: underscore
Encoding: 95 95 293
GlifName: underscore
Width: 666
Flags: HMW
LayerCount: 2
Fore
SplineSet
666 100 m 1
 666 0 l 1
 0 0 l 1
 0 100 l 1
 666 100 l 1
EndSplineSet
Colour: ffff
EndChar

StartChar: grave
Encoding: 96 96 294
GlifName: grave
Width: 524
Flags: HMW
LayerCount: 2
Fore
SplineSet
386 1158 m 1
 336 1126 l 1
 138 1442 l 1
 188 1474 l 1
 386 1158 l 1
EndSplineSet
Colour: ff00
EndChar

StartChar: a
Encoding: 97 97 295
GlifName: a
Width: 993
Flags: HMW
LayerCount: 2
Fore
SplineSet
863 0 m 1
 765 0 l 1
 742 80 726 182 726 322 c 2
 726 724 l 2
 726 861 603 929 467 929 c 0
 332 929 210 861 210 724 c 1
 110 724 l 1
 110 917 294 1013 467 1013 c 0
 641 1013 826 917 826 724 c 2
 826 322 l 2
 826 188 842 70 863 0 c 1
EndSplineSet
Refer: 427 57355 N 1 0 0 1 -60 0 2
Colour: ffff00
EndChar

StartChar: b
Encoding: 98 98 296
GlifName: b
Width: 1168
Flags: HMW
LayerCount: 2
Fore
SplineSet
270 0 m 1
 170 0 l 1
 170 1389 l 1
 270 1389 l 1
 270 0 l 1
EndSplineSet
Refer: 431 57359 N 1 0 0 1 0 0 2
Colour: ffff00
EndChar

StartChar: c
Encoding: 99 99 297
GlifName: c
Width: 999
Flags: HMW
LayerCount: 2
Fore
SplineSet
819 229 m 1
 909 193 l 1
 841 69 714 -20 534 -20 c 0
 225 -20 90 240 90 496 c 0
 90 752 225 1013 534 1013 c 0
 713 1013 841 926 909 803 c 1
 819 767 l 1
 763 868 671 929 534 929 c 0
 307 929 190 736 190 496 c 0
 190 256 307 66 534 66 c 0
 672 66 763 127 819 229 c 1
EndSplineSet
Colour: ffff00
EndChar

StartChar: d
Encoding: 100 100 298
GlifName: d
Width: 1168
Flags: HMW
LayerCount: 2
Fore
SplineSet
998 0 m 1
 898 0 l 1
 898 1389 l 1
 998 1389 l 1
 998 0 l 1
EndSplineSet
Refer: 431 57359 N -1 0 0 -1 1168 993 2
Colour: ffff00
EndChar

StartChar: e
Encoding: 101 101 299
GlifName: e
Width: 1048
Flags: HMW
LayerCount: 2
Fore
SplineSet
181 453 m 1
 200 170 357 66 570 66 c 0
 672 66 790 90 898 147 c 1
 934 74 l 1
 808 5 679 -20 567 -20 c 0
 282 -20 80 153 80 496 c 0
 80 752 215 1013 524 1013 c 1
 833 1013 968 753 968 496 c 9
 967 453 l 1
 181 453 l 1
181 539 m 1
 867 539 l 1
 852 758 738 929 524 929 c 0
 311 929 195 758 181 539 c 1
EndSplineSet
Colour: ffff00
EndChar

StartChar: f
Encoding: 102 102 300
GlifName: f
Width: 644
Flags: HMW
LayerCount: 2
Fore
SplineSet
643 1388 m 1
 643 1304 l 1
 456 1304 l 2
 393 1304 330 1250 330 1171 c 2
 330 0 l 1
 230 0 l 1
 230 1171 l 2
 230 1286 325 1388 456 1388 c 1
 518 1388 581 1388 643 1388 c 1
EndSplineSet
Refer: 426 57354 N 1 0 0 1 -40 462 2
Colour: ffff00
EndChar

StartChar: g
Encoding: 103 103 301
GlifName: g
Width: 1168
Flags: HMW
LayerCount: 2
Fore
SplineSet
898 993 m 1
 998 993 l 1
 998 48 l 2
 998 -288 780 -430 527 -430 c 0
 391 -430 248 -389 122 -317 c 1
 160 -242 l 1
 273 -307 408 -348 532 -348 c 0
 730 -348 898 -242 898 48 c 2
 898 993 l 1
EndSplineSet
Refer: 431 57359 N -1 0 0 -1 1168 993 2
Colour: ffff00
EndChar

StartChar: h
Encoding: 104 104 302
GlifName: h
Width: 1088
Flags: HMW
LayerCount: 2
Fore
SplineSet
260 0 m 1
 160 0 l 1
 160 1389 l 1
 260 1389 l 1
 260 0 l 1
EndSplineSet
Refer: 429 57357 N 1 0 0 1 10 0 2
Colour: ffff00
EndChar

StartChar: k
Encoding: 107 107 305
GlifName: k
Width: 931
Flags: HMW
LayerCount: 2
Fore
SplineSet
804 993 m 1
 931 993 l 1
 456 497 l 1
 898 0 l 1
 774 0 l 1
 393 426 l 1
 260 280 l 1
 260 0 l 1
 160 0 l 1
 160 1389 l 1
 260 1389 l 1
 260 420 l 1
 804 993 l 1
EndSplineSet
Colour: ffff00
EndChar

StartChar: l
Encoding: 108 108 306
GlifName: l
Width: 460
Flags: HMW
LayerCount: 2
Fore
SplineSet
280 0 m 1
 180 0 l 1
 180 1389 l 1
 280 1389 l 1
 280 0 l 1
EndSplineSet
Colour: ffff00
EndChar

StartChar: m
Encoding: 109 109 307
GlifName: m
Width: 1536
Flags: HMW
LayerCount: 2
Fore
SplineSet
150 993 m 1
 250 993 l 1
 250 0 l 1
 150 0 l 1
 150 993 l 1
EndSplineSet
Refer: 428 57356 N 1 0 0 1 -568 0 2
Refer: 428 57356 N 1 0 0 1 0 0 2
Colour: ffff00
EndChar

StartChar: n
Encoding: 110 110 308
GlifName: n
Width: 1088
Flags: HMW
LayerCount: 2
Fore
SplineSet
260 0 m 1
 160 0 l 1
 160 993 l 1
 260 993 l 1
 260 0 l 1
EndSplineSet
Refer: 429 57357 N 1 0 0 1 10 0 2
Colour: ffff00
EndChar

StartChar: o
Encoding: 111 111 309
GlifName: o
Width: 1068
Flags: HMW
LayerCount: 2
Fore
SplineSet
534 929 m 0
 307 929 190 736 190 496 c 0
 190 256 307 66 534 66 c 0
 761 66 878 256 878 496 c 0
 878 736 761 929 534 929 c 0
534 1013 m 0
 843 1013 978 752 978 496 c 0
 978 240 843 -20 534 -20 c 0
 225 -20 90 240 90 496 c 0
 90 752 225 1013 534 1013 c 0
EndSplineSet
Colour: ffff00
EndChar

StartChar: p
Encoding: 112 112 310
GlifName: p
Width: 1158
Flags: HMW
LayerCount: 2
Fore
SplineSet
160 993 m 1
 260 993 l 1
 260 -410 l 1
 160 -410 l 1
 160 993 l 1
EndSplineSet
Refer: 431 57359 N 1 0 0 1 -10 0 2
Colour: ffff00
EndChar

StartChar: q
Encoding: 113 113 311
GlifName: q
Width: 1158
Flags: HMW
LayerCount: 2
Fore
SplineSet
898 993 m 1
 998 993 l 1
 998 -410 l 1
 898 -410 l 1
 898 993 l 1
EndSplineSet
Refer: 431 57359 N -1 0 0 -1 1168 993 2
Colour: ffff00
EndChar

StartChar: r
Encoding: 114 114 312
GlifName: r
Width: 694
Flags: HMW
LayerCount: 2
Fore
SplineSet
160 993 m 1
 260 993 l 1
 260 0 l 1
 160 0 l 1
 160 993 l 1
EndSplineSet
Refer: 430 57358 N 1 0 0 1 10 -2 2
Colour: ffff00
EndChar

StartChar: s
Encoding: 115 115 313
GlifName: s
Width: 959
Flags: HMW
LayerCount: 2
Fore
SplineSet
100 300 m 1
 200 300 l 1
 200 147 331 86 479 86 c 0
 627 86 759 148 759 300 c 0
 759 434 641 452 470 473 c 0
 320 491 115 517 115 707 c 0
 115 911 306 993 479 993 c 0
 652 993 842 910 842 707 c 1
 742 707 l 1
 742 852 620 909 479 909 c 0
 338 909 215 851 215 707 c 0
 215 595 318 578 484 557 c 0
 641 538 859 508 859 300 c 0
 859 88 659 0 479 0 c 0
 299 0 100 89 100 300 c 1
EndSplineSet
Colour: ffff00
EndChar

StartChar: t
Encoding: 116 116 314
GlifName: t
Width: 684
Flags: HMW
LayerCount: 2
Fore
SplineSet
614 86 m 1
 614 0 l 1
 560 0 505 0 454 0 c 1
 323 0 228 103 228 218 c 2
 228 1279 l 1
 328 1279 l 1
 328 218 l 2
 328 139 391 86 454 86 c 2
 614 86 l 1
EndSplineSet
Refer: 426 57354 N 1 0 0 1 -70 462 2
Colour: ffff00
EndChar

StartChar: u
Encoding: 117 117 315
GlifName: u
Width: 1088
Flags: HMW
LayerCount: 2
Fore
SplineSet
828 993 m 1
 928 993 l 1
 928 0 l 1
 828 0 l 1
 828 993 l 1
EndSplineSet
Refer: 429 57357 N -1 0 0 -1 1078 995 2
Colour: ffff00
EndChar

StartChar: v
Encoding: 118 118 316
GlifName: v
Width: 989
Flags: HMW
LayerCount: 2
Fore
SplineSet
854 993 m 1
 959 993 l 1
 555 0 l 1
 436 0 l 1
 30 993 l 1
 135 993 l 1
 495 117 l 1
 854 993 l 1
EndSplineSet
Colour: ffff00
EndChar

StartChar: w
Encoding: 119 119 317
GlifName: w
Width: 1481
Flags: HMW
LayerCount: 2
Fore
SplineSet
1307 993 m 1
 1411 993 l 1
 1113 0 l 1
 988 0 l 1
 741 831 l 1
 494 0 l 1
 369 0 l 1
 70 993 l 1
 174 993 l 1
 431 140 l 1
 685 993 l 1
 796 993 l 1
 1051 140 l 1
 1307 993 l 1
EndSplineSet
Colour: ffff00
EndChar

StartChar: x
Encoding: 120 120 318
GlifName: x
Width: 1097
Flags: HMW
LayerCount: 2
Fore
SplineSet
926 993 m 1
 1047 993 l 1
 609 482 l 1
 1023 0 l 1
 901 0 l 1
 549 407 l 1
 196 0 l 1
 74 0 l 1
 488 482 l 1
 50 993 l 1
 171 993 l 1
 549 556 l 1
 926 993 l 1
EndSplineSet
Colour: ffff00
EndChar

StartChar: y
Encoding: 121 121 319
GlifName: y
Width: 988
Flags: HMW
LayerCount: 2
Fore
SplineSet
854 993 m 1
 958 993 l 1
 569 27 l 2
 483 -193 393 -410 111 -410 c 2
 57 -410 l 1
 57 -326 l 1
 111 -326 l 2
 293 -326 370 -203 452 0 c 1
 438 0 l 1
 30 993 l 1
 135 993 l 1
 498 113 l 1
 854 993 l 1
EndSplineSet
Colour: ffff00
EndChar

StartChar: z
Encoding: 122 122 320
GlifName: z
Width: 961
Flags: HMW
LayerCount: 2
Fore
SplineSet
70 909 m 1
 70 993 l 1
 891 993 l 1
 891 890 l 1
 177 86 l 1
 891 86 l 1
 891 0 l 1
 70 0 l 1
 70 105 l 1
 783 909 l 1
 70 909 l 1
EndSplineSet
Colour: ffff00
EndChar

StartChar: bar
Encoding: 124 124 321
GlifName: bar
Width: 440
Flags: HMW
LayerCount: 2
Fore
SplineSet
170 1389 m 1
 270 1389 l 1
 270 -410 l 1
 170 -410 l 1
 170 1389 l 1
EndSplineSet
Colour: ffff
EndChar

StartChar: asciitilde
Encoding: 126 126 322
GlifName: asciitilde
Width: 868
Flags: HMW
LayerCount: 2
Fore
SplineSet
86 1134 m 1
 138 1256 219 1304 288 1304 c 0
 349 1304 394 1285 452 1241 c 0
 504 1202 534 1189 581 1189 c 0
 618 1189 681 1221 727 1329 c 1
 783 1305 l 1
 731 1185 652 1129 581 1129 c 0
 520 1129 472 1150 416 1193 c 0
 362 1233 335 1244 288 1244 c 0
 249 1244 188 1218 142 1110 c 1
 86 1134 l 1
EndSplineSet
Colour: ff00
EndChar

StartChar: cent
Encoding: 162 162 324
GlifName: cent
Width: 999
Flags: HMW
LayerCount: 2
Fore
SplineSet
584 978 m 1
 484 978 l 1
 484 1389 l 1
 584 1389 l 1
 584 978 l 1
584 -342 m 1
 484 -342 l 1
 484 65 l 1
 584 65 l 1
 584 -342 l 1
EndSplineSet
Refer: 297 99 N 1 0 0 1 0 0 2
Colour: ffff00
EndChar

StartChar: sterling
Encoding: 163 163 325
GlifName: sterling
Width: 1254
Flags: HMW
LayerCount: 2
Fore
SplineSet
594 1325 m 0
 497 1325 407 1244 407 1129 c 2
 407 260 l 2
 407 194 390 133 348 86 c 1
 1134 86 l 1
 1134 0 l 1
 120 0 l 1
 120 86 l 17
 242 86 307 138 307 260 c 2
 307 1129 l 2
 307 1278 427 1409 594 1409 c 0
 741 1409 854 1306 877 1180 c 1
 779 1168 l 1
 762 1262 681 1325 594 1325 c 0
EndSplineSet
Refer: 426 57354 N 1 0 0 1 20 0 2
Colour: ffff00
EndChar

StartChar: currency
Encoding: 164 164 326
GlifName: currency
Width: 1263
Flags: HMW
LayerCount: 2
Fore
SplineSet
390 889 m 1
 310 839 l 1
 80 1102 l 1
 160 1152 l 1
 390 889 l 1
310 202 m 1
 390 152 l 1
 160 -111 l 1
 80 -61 l 1
 310 202 l 1
953 839 m 1
 873 889 l 1
 1103 1152 l 1
 1183 1102 l 1
 953 839 l 1
873 152 m 1
 953 202 l 1
 1183 -61 l 1
 1103 -111 l 1
 873 152 l 1
EndSplineSet
Refer: 309 111 N 1 0 0 1 88 0 2
Colour: ffff00
EndChar

StartChar: brokenbar
Encoding: 166 166 328
GlifName: brokenbar
Width: 440
Flags: HMW
LayerCount: 2
Fore
SplineSet
270 850 m 1
 170 850 l 1
 170 1389 l 1
 270 1389 l 1
 270 850 l 1
270 0 m 1
 170 0 l 1
 170 494 l 1
 270 494 l 1
 270 0 l 1
EndSplineSet
Colour: ffff
EndChar

StartChar: section
Encoding: 167 167 329
GlifName: section
Width: 952
Flags: HMW
LayerCount: 2
Fore
SplineSet
102 264 m 1
 202 264 l 1
 202 114 330 52 476 52 c 0
 623 52 752 115 752 264 c 0
 752 361 636 391 468 414 c 0
 307 436 100 473 100 670 c 0
 100 798 174 884 273 930 c 1
 178 962 100 1017 100 1124 c 0
 100 1333 297 1420 476 1420 c 0
 655 1420 851 1332 851 1124 c 1
 751 1124 l 1
 751 1274 623 1334 476 1334 c 0
 329 1334 200 1273 200 1124 c 0
 200 1027 317 998 485 972 c 0
 648 948 852 907 852 706 c 0
 852 580 781 500 685 456 c 1
 777 424 852 369 852 264 c 0
 852 55 655 -32 476 -32 c 0
 296 -32 102 56 102 264 c 1
472 887 m 1
 329 886 200 819 200 670 c 0
 200 548 309 523 480 499 c 1
 626 500 752 558 752 706 c 0
 752 834 642 861 472 887 c 1
EndSplineSet
Colour: ffff00
EndChar

StartChar: copyright
Encoding: 169 169 331
GlifName: copyright
Width: 1710
Flags: HMW
LayerCount: 2
Fore
SplineSet
220 693 m 0
 220 333 511 51 855 51 c 0
 1199 51 1490 333 1490 693 c 0
 1490 1053 1199 1333 855 1333 c 0
 511 1333 220 1053 220 693 c 0
120 693 m 0
 120 1089 443 1419 855 1419 c 0
 1267 1419 1590 1089 1590 693 c 0
 1590 297 1267 -33 855 -33 c 0
 443 -33 120 297 120 693 c 0
1162 935 m 1
 1080 887 l 1
 1024 956 938 993 855 993 c 0
 694 993 565 861 565 694 c 0
 565 528 694 397 855 397 c 0
 938 397 1024 433 1080 502 c 1
 1162 454 l 1
 1088 365 974 311 855 311 c 0
 624 311 465 494 465 694 c 0
 465 893 624 1077 855 1077 c 0
 974 1077 1088 1024 1162 935 c 1
EndSplineSet
Colour: ffff00
EndChar

StartChar: ordfeminine
Encoding: 170 170 332
GlifName: ordfeminine
Width: 747
Flags: HMW
LayerCount: 2
Fore
SplineSet
510 1201 m 1
 510 1282 l 2
 510 1363 440 1400 350 1400 c 0
 260 1400 193 1364 193 1282 c 1
 133 1282 l 1
 133 1412 248 1460 350 1460 c 0
 452 1460 570 1413 570 1282 c 2
 570 1027 l 2
 570 941 595 908 616 892 c 1
 578 844 l 1
 555 863 534 891 522 934 c 1
 471 871 398 839 310 839 c 0
 197 839 120 909 120 1006 c 0
 120 1154 253 1208 411 1208 c 0
 446 1208 475 1206 510 1201 c 1
510 1140 m 1
 472 1145 446 1148 411 1148 c 0
 259 1148 180 1102 180 1006 c 0
 180 947 223 899 310 899 c 0
 406 899 474 942 510 1032 c 1
 510 1140 l 1
EndSplineSet
Colour: ff00
EndChar

StartChar: logicalnot
Encoding: 172 172 333
GlifName: logicalnot
Width: 1073
Flags: HMW
LayerCount: 2
Fore
SplineSet
100 443 m 1
 100 527 l 1
 903 527 l 1
 903 213 l 1
 803 213 l 1
 803 443 l 1
 100 443 l 1
EndSplineSet
Colour: ffff00
EndChar

StartChar: registered
Encoding: 174 174 335
GlifName: registered
Width: 1710
Flags: HMW
LayerCount: 2
Fore
SplineSet
120 693 m 0
 120 1089 443 1419 855 1419 c 0
 1267 1419 1590 1089 1590 693 c 0
 1590 297 1267 -33 855 -33 c 0
 443 -33 120 297 120 693 c 0
220 693 m 0
 220 333 511 51 855 51 c 0
 1199 51 1490 333 1490 693 c 0
 1490 1053 1199 1333 855 1333 c 0
 511 1333 220 1053 220 693 c 0
690 643 m 1
 886 643 l 2
 997 643 1087 710 1087 819 c 0
 1087 928 998 997 886 997 c 2
 690 997 l 1
 690 643 l 1
1165 334 m 1
 1083 286 l 1
 860 557 l 1
 690 557 l 1
 690 310 l 1
 590 310 l 1
 590 1083 l 1
 886 1083 l 2
 1052 1083 1187 972 1187 819 c 0
 1187 693 1095 598 973 568 c 1
 1165 334 l 1
EndSplineSet
Colour: ffff00
EndChar

StartChar: degree
Encoding: 176 176 337
GlifName: degree
Width: 646
Flags: HMW
LayerCount: 2
Fore
SplineSet
485 1403 m 0
 485 1494 414 1565 323 1565 c 0
 232 1565 161 1494 161 1403 c 0
 161 1312 232 1241 323 1241 c 0
 414 1241 485 1312 485 1403 c 0
545 1403 m 0
 545 1280 446 1181 323 1181 c 0
 200 1181 101 1280 101 1403 c 0
 101 1526 200 1625 323 1625 c 0
 446 1625 545 1526 545 1403 c 0
EndSplineSet
Colour: ff00
EndChar

StartChar: uni00B2
Encoding: 178 178 339
GlifName: uni00B_2
Width: 658
Flags: HMW
LayerCount: 2
Fore
SplineSet
120 864 m 1
 120 924 l 1
 392 1175 l 0
 421 1204 438 1225 438 1278 c 0
 438 1361 377 1400 309 1400 c 0
 241 1400 180 1361 180 1278 c 1
 120 1278 l 1
 120 1401 217 1460 309 1460 c 0
 401 1460 498 1401 498 1278 c 0
 498 1207 467 1166 434 1133 c 2
 205 924 l 1
 508 924 l 1
 508 864 l 1
 120 864 l 1
EndSplineSet
Colour: ff00
EndChar

StartChar: uni00B3
Encoding: 179 179 340
GlifName: uni00B_3
Width: 606
Flags: HMW
LayerCount: 2
Fore
SplineSet
180 1296 m 1
 120 1296 l 1
 120 1391 206 1460 303 1460 c 0
 400 1460 486 1391 486 1296 c 0
 486 1239 456 1192 409 1162 c 1
 454 1133 486 1085 486 1028 c 0
 486 933 400 864 303 864 c 0
 206 864 120 933 120 1028 c 1
 180 1028 l 1
 180 973 232 924 303 924 c 0
 374 924 426 973 426 1028 c 0
 426 1083 374 1132 303 1132 c 2
 242 1132 l 1
 242 1192 l 1
 303 1192 l 2
 374 1192 426 1241 426 1296 c 0
 426 1351 374 1400 303 1400 c 0
 232 1400 180 1351 180 1296 c 1
EndSplineSet
Colour: ff00
EndChar

StartChar: acute
Encoding: 180 180 341
GlifName: acute
Width: 517
Flags: HMW
LayerCount: 2
Fore
SplineSet
332 1474 m 1
 382 1442 l 1
 185 1126 l 1
 135 1158 l 1
 332 1474 l 1
EndSplineSet
Colour: ff00
EndChar

StartChar: mu
Encoding: 181 181 342
GlifName: mu
Width: 1108
Flags: HMW
LayerCount: 2
Fore
SplineSet
170 993 m 1
 270 993 l 1
 270 324 l 2
 270 202 319 66 504 66 c 0
 698 66 838 214 838 409 c 2
 838 993 l 1
 938 993 l 1
 938 0 l 1
 838 0 l 1
 838 130 l 1
 762 40 647 -20 504 -20 c 0
 396 -20 321 13 270 62 c 1
 270 -410 l 1
 170 -410 l 1
 170 993 l 1
EndSplineSet
EndChar

StartChar: paragraph
Encoding: 182 182 343
GlifName: paragraph
Width: 1236
Flags: HMW
LayerCount: 2
Fore
SplineSet
708 1305 m 1
 516 1305 l 2
 352 1305 200 1167 200 952 c 0
 200 737 352 601 516 601 c 2
 708 601 l 1
 708 1305 l 1
1066 -410 m 1
 966 -410 l 1
 966 1305 l 1
 808 1305 l 1
 808 -410 l 1
 708 -410 l 1
 708 515 l 1
 516 515 l 2
 280 515 100 707 100 952 c 0
 100 1197 280 1389 516 1389 c 2
 1066 1389 l 1
 1066 -410 l 1
EndSplineSet
Colour: ffff00
EndChar

StartChar: cedilla
Encoding: 184 184 345
GlifName: cedilla
Width: 723
Flags: HMW
LayerCount: 2
Fore
SplineSet
160 -377 m 1
 210 -419 268 -439 352 -439 c 0
 436 -439 515 -394 515 -343 c 0
 515 -253 420 -131 324 -58 c 1
 374 18 l 1
 500 -73 595 -203 595 -343 c 0
 595 -482 454 -529 351 -529 c 0
 248 -529 178 -501 111 -437 c 1
 160 -377 l 1
EndSplineSet
Colour: ffff00
EndChar

StartChar: uni00B9
Encoding: 185 185 346
GlifName: uni00B_9
Width: 457
Flags: HMW
LayerCount: 2
Fore
SplineSet
89 1258 m 1
 89 1318 l 1
 249 1318 l 1
 250 1430 l 1
 310 1430 l 1
 310 804 l 1
 250 804 l 1
 250 1258 l 1
 89 1258 l 1
EndSplineSet
Colour: ff00
EndChar

StartChar: onequarter
Encoding: 188 188 348
GlifName: onequarter
Width: 1965
Flags: HMW
LayerCount: 2
Fore
SplineSet
150 1158 m 1
 150 1244 l 1
 182 1244 l 2
 331 1244 384 1265 421 1320 c 1
 421 1490 l 1
 521 1490 l 1
 521 430 l 1
 421 430 l 1
 421 1213 l 1
 362 1171 281 1158 182 1158 c 2
 150 1158 l 1
1815 -122 m 1
 1815 -206 l 1
 1669 -206 l 1
 1669 -458 l 1
 1569 -458 l 1
 1569 -206 l 1
 1055 -206 l 1
 1055 -117 l 1
 1552 642 l 1
 1669 642 l 1
 1669 -122 l 1
 1815 -122 l 1
1569 -122 m 1
 1569 494 l 1
 1166 -122 l 1
 1569 -122 l 1
609 -79 m 1
 525 -33 l 1
 1555 1334 l 1
 1639 1288 l 1
 609 -79 l 1
EndSplineSet
Colour: ffff00
EndChar

StartChar: onehalf
Encoding: 189 189 349
GlifName: onehalf
Width: 2096
Flags: HMW
LayerCount: 2
Fore
SplineSet
606 -79 m 1
 522 -33 l 1
 1553 1334 l 1
 1637 1288 l 1
 606 -79 l 1
1956 -376 m 1
 1956 -460 l 1
 1269 -460 l 1
 1269 -365 l 1
 1758 97 l 2
 1817 153 1856 204 1856 318 c 0
 1856 492 1732 564 1612 564 c 0
 1493 564 1370 492 1370 318 c 1
 1270 318 l 1
 1270 534 1437 650 1612 650 c 0
 1786 650 1956 534 1956 318 c 0
 1956 184 1901 105 1832 41 c 2
 1392 -376 l 1
 1956 -376 l 1
150 1158 m 1
 150 1244 l 1
 182 1244 l 2
 331 1244 384 1265 421 1320 c 1
 421 1490 l 1
 521 1490 l 1
 521 430 l 1
 421 430 l 1
 421 1213 l 1
 362 1171 281 1158 182 1158 c 2
 150 1158 l 1
EndSplineSet
Colour: ffff00
EndChar

StartChar: threequarters
Encoding: 190 190 350
GlifName: threequarters
Width: 2140
Flags: HMW
LayerCount: 2
Fore
SplineSet
1990 -122 m 1
 1990 -206 l 1
 1844 -206 l 1
 1844 -458 l 1
 1744 -458 l 1
 1744 -206 l 1
 1230 -206 l 1
 1230 -117 l 1
 1728 642 l 1
 1844 642 l 1
 1844 -122 l 1
 1990 -122 l 1
1744 -122 m 1
 1744 493 l 1
 1341 -122 l 1
 1744 -122 l 1
426 900 m 2
 340 900 l 1
 340 984 l 1
 426 984 l 2
 582 984 685 1039 685 1203 c 0
 685 1319 574 1412 443 1412 c 0
 324 1412 200 1339 200 1165 c 1
 100 1165 l 1
 100 1381 268 1498 443 1498 c 0
 630 1498 785 1365 785 1203 c 0
 785 1079 729 990 634 942 c 1
 728 895 785 807 785 682 c 0
 785 520 630 388 443 388 c 0
 268 388 100 503 100 719 c 1
 200 719 l 1
 200 545 324 472 443 472 c 0
 574 472 685 566 685 682 c 0
 685 845 583 900 426 900 c 2
784 -79 m 1
 700 -33 l 1
 1731 1334 l 1
 1815 1288 l 1
 784 -79 l 1
EndSplineSet
Colour: ffff00
EndChar

StartChar: AE
Encoding: 198 198 358
GlifName: A_E_
Width: 1788
Flags: HMW
LayerCount: 2
Fore
SplineSet
844 1305 m 1
 783 1305 l 1
 374 440 l 1
 844 440 l 1
 844 1305 l 1
717 1389 m 1
 1728 1389 l 1
 1728 1305 l 1
 944 1305 l 1
 944 714 l 1
 1728 714 l 1
 1728 628 l 1
 944 628 l 1
 944 86 l 1
 1728 86 l 1
 1728 0 l 1
 844 0 l 1
 844 356 l 1
 332 356 l 1
 148 0 l 1
 40 0 l 1
 717 1389 l 1
EndSplineSet
Colour: ffff00
EndChar

StartChar: Thorn
Encoding: 222 222 381
GlifName: T_horn
Width: 1149
Flags: HMW
LayerCount: 2
Fore
SplineSet
290 389 m 1
 577 389 l 2
 766 389 919 479 919 682 c 0
 919 885 766 975 577 975 c 2
 290 975 l 1
 290 389 l 1
290 0 m 1
 190 0 l 1
 190 1389 l 1
 290 1389 l 1
 290 1061 l 1
 577 1061 l 2
 810 1061 1019 935 1019 682 c 0
 1019 429 810 303 577 303 c 2
 290 303 l 1
 290 0 l 1
EndSplineSet
Colour: ffff00
EndChar

StartChar: germandbls
Encoding: 223 223 382
GlifName: germandbls
Width: 1129
Flags: HMW
LayerCount: 2
Fore
SplineSet
537 0 m 1
 537 86 l 1
 834 86 919 106 919 232 c 0
 919 324 860 378 786 430 c 0
 713 482 624 549 624 671 c 0
 624 767 664 817 705 866 c 0
 745 914 785 962 785 1053 c 0
 785 1215 697 1325 527 1325 c 0
 351 1325 270 1216 270 1053 c 2
 270 0 l 1
 170 0 l 1
 170 1053 l 2
 170 1240 279 1409 527 1409 c 0
 769 1409 885 1241 885 1053 c 0
 885 948 842 896 800 846 c 0
 761 800 724 755 724 671 c 0
 724 589 777 548 850 496 c 0
 928 440 1019 362 1019 232 c 0
 1019 24 814 0 537 0 c 1
EndSplineSet
Colour: ffff00
EndChar

StartChar: ae
Encoding: 230 230 389
GlifName: ae
Width: 1690
Flags: HMW
LayerCount: 2
Fore
SplineSet
816 476 m 1
 832 234 965 66 1203 66 c 0
 1281 66 1396 82 1521 148 c 1
 1569 74 l 1
 1434 4 1301 -20 1197 -20 c 0
 976 -20 850 86 784 236 c 1
 728 94 599 -20 393 -20 c 0
 217 -20 80 86 80 255 c 0
 80 484 291 583 549 583 c 0
 603 583 659 579 716 572 c 1
 716 684 l 2
 716 821 620 929 457 929 c 0
 312 929 200 861 200 724 c 1
 100 724 l 1
 100 917 274 1013 457 1013 c 0
 624 1013 745 911 797 785 c 1
 868 897 986 1013 1159 1013 c 0
 1468 1013 1610 776 1610 519 c 2
 1610 476 l 1
 816 476 l 1
816 562 m 1
 1509 562 l 1
 1494 781 1373 929 1159 929 c 0
 946 929 830 781 816 562 c 1
716 485 m 1
 656 494 598 498 544 498 c 0
 331 498 180 426 180 258 c 0
 180 132 259 66 393 66 c 0
 599 66 716 202 716 374 c 2
 716 485 l 1
EndSplineSet
EndChar

StartChar: eth
Encoding: 240 240 399
GlifName: eth
Width: 1088
Flags: HMW
LayerCount: 2
Fore
SplineSet
544 929 m 0
 317 929 200 736 200 496 c 0
 200 256 317 66 544 66 c 0
 771 66 888 256 888 496 c 0
 888 736 771 929 544 929 c 0
544 1013 m 0
 622 1013 689 997 745 968 c 1
 690 1050 624 1128 552 1194 c 1
 386 1060 l 1
 324 1138 l 1
 473 1259 l 1
 401 1311 325 1348 248 1362 c 1
 266 1460 l 1
 369 1441 466 1392 554 1324 c 1
 709 1450 l 1
 771 1372 l 1
 630 1258 l 1
 859.192917001 1038.77199243 988 753.714882529 988 496 c 0
 988 240 853 -20 544 -20 c 0
 235 -20 100 240 100 496 c 0
 100 752 235 1013 544 1013 c 0
EndSplineSet
EndChar

StartChar: dotlessi
Encoding: 305 305 414
GlifName: dotlessi
Width: 400
Flags: HMW
LayerCount: 2
Fore
SplineSet
150 993 m 1
 250 993 l 1
 250 0 l 1
 150 0 l 1
 150 993 l 1
EndSplineSet
Colour: ffff00
EndChar

StartChar: OE
Encoding: 338 338 415
GlifName: O_E_
Width: 1685
Flags: HMW
LayerCount: 2
Fore
SplineSet
704 86 m 1
 704 1304 l 1
 369 1292 200 1024 200 681 c 0
 200 338 369 98 704 86 c 1
1535 1389 m 1
 1535 1305 l 1
 804 1305 l 1
 804 723 l 1
 1535 723 l 1
 1535 639 l 1
 804 639 l 1
 804 86 l 1
 1535 86 l 1
 1535 0 l 1
 731 0 l 2
 301 0 100 309 100 681 c 0
 100 1053 302 1389 731 1389 c 2
 1535 1389 l 1
EndSplineSet
Colour: ffff00
EndChar

StartChar: uniE003
Encoding: 57347 57347 417
GlifName: uniE_003
Width: 1762
Flags: HMW
LayerCount: 2
Fore
SplineSet
1586 1413 m 1
 1638 1359 l 1
 176 -52 l 1
 124 2 l 1
 1586 1413 l 1
EndSplineSet
Colour: ff00ff
EndChar

StartChar: uniE004
Encoding: 57348 57348 418
GlifName: uniE_004
Width: 1088
Flags: HMW
LayerCount: 2
Fore
SplineSet
180 -48 m 1
 120 -2 l 1
 908 1011 l 1
 968 965 l 1
 180 -48 l 1
EndSplineSet
Colour: ff00ff
EndChar

StartChar: uniE005
Encoding: 57349 57349 420
GlifName: uniE_005
Width: 1462
Flags: HMW
LayerCount: 2
Fore
SplineSet
1341 -30 m 1
 1283 -78 l 1
 814 482 l 1
 872 530 l 1
 1341 -30 l 1
EndSplineSet
Colour: ff00ff
EndChar

StartChar: uniE006
Encoding: 57350 57350 421
GlifName: uniE_006
Width: 1146
Flags: HMW
LayerCount: 2
Fore
SplineSet
236 87 m 1
 236 163 l 1
 910 163 l 1
 910 87 l 1
 236 87 l 1
236 413 m 1
 236 489 l 1
 910 489 l 1
 910 413 l 1
 236 413 l 1
EndSplineSet
Colour: ff00ff
EndChar

StartChar: uniE007
Encoding: 57351 57351 422
GlifName: uniE_007
Width: 869
Flags: HMW
LayerCount: 2
Fore
SplineSet
581 1543 m 1
 551 1556 508 1572 472 1572 c 0
 382 1572 325 1510 325 1457 c 0
 325 1383 374 1364 443 1343 c 0
 504 1324 587 1295 587 1201 c 0
 587 1091 457 1032 344 1032 c 0
 280 1032 224 1044 177 1066 c 1
 203 1120 l 1
 240 1102 288 1092 344 1092 c 0
 449 1092 527 1147 527 1201 c 0
 527 1249 492 1264 425 1285 c 0
 358 1306 265 1341 265 1457 c 0
 265 1552 356 1632 472 1632 c 0
 523 1632 567 1615 605 1599 c 1
 581 1543 l 1
EndSplineSet
Colour: ffff
EndChar

StartChar: uniE008
Encoding: 57352 57352 423
GlifName: uniE_008
Width: 1454
Flags: HMW
LayerCount: 2
Fore
SplineSet
546 1112 m 0
 546 1198 480 1273 392 1273 c 0
 304 1273 238 1198 238 1112 c 0
 238 1025 306 955 392 955 c 0
 478 955 546 1025 546 1112 c 0
620 1112 m 0
 620 985 520 881 392 881 c 0
 264 881 162 985 162 1112 c 0
 162 1234 258 1349 392 1349 c 0
 526 1349 620 1234 620 1112 c 0
EndSplineSet
Colour: ff00ff
EndChar

StartChar: uniE009
Encoding: 57353 57353 424
GlifName: uniE_009
Width: 1146
Flags: HMW
LayerCount: 2
Fore
SplineSet
536 1590 m 1
 610 1590 l 1
 610 -227 l 1
 536 -227 l 1
 536 1590 l 1
EndSplineSet
Colour: ff00ff
EndChar

StartChar: uni0237
Encoding: 567 567 425
GlifName: uni0237
Width: 400
Flags: HMW
LayerCount: 2
Fore
SplineSet
150 -192 m 2
 150 993 l 1
 250 993 l 1
 250 -192 l 2
 250 -306 154 -410 23 -410 c 1
 -1 -410 -28 -410 -55 -410 c 1
 -55 -324 l 1
 23 -324 l 2
 86 -324 150 -270 150 -192 c 2
EndSplineSet
Colour: ffff00
EndChar

StartChar: uniE00A
Encoding: 57354 57354 426
GlifName: uniE_00A_
Width: 1214
Flags: HMW
LayerCount: 2
Fore
SplineSet
100 455 m 1
 100 531 l 1
 684 531 l 1
 684 455 l 1
 100 455 l 1
EndSplineSet
Colour: ff00ff
EndChar

StartChar: uniE00B
Encoding: 57355 57355 427
GlifName: uniE_00B_
Width: 1108
Flags: HMW
LayerCount: 2
Fore
SplineSet
850 549 m 1
 820 467 l 1
 769 481 703 490 635 490 c 0
 435 490 250 415 250 254 c 0
 250 130 329 66 477 66 c 0
 634 66 786 162 786 334 c 1
 886 334 l 1
 886 104 680 -20 473 -20 c 0
 287 -20 150 84 150 259 c 0
 150 493 423 574 635 574 c 0
 713 574 787 565 850 549 c 1
EndSplineSet
Colour: ffff00
EndChar

StartChar: uniE00C
Encoding: 57356 57356 428
GlifName: uniE_00C_
Width: 1536
Flags: HMW
LayerCount: 2
Fore
SplineSet
778 667 m 1
 778 834 865 1015 1082 1015 c 0
 1312 1015 1386 848 1386 667 c 2
 1386 -25 l 1
 1286 -25 l 1
 1286 667 l 2
 1286 814 1206 931 1052 931 c 0
 901 931 818 792 818 667 c 1
 778 667 l 1
EndSplineSet
Colour: ffff00
EndChar

StartChar: uniE00D
Encoding: 57357 57357 429
GlifName: uniE_00D_
Width: 1068
Flags: HMW
LayerCount: 2
Fore
SplineSet
190 596 m 1
 190 846 325 1013 564 1013 c 0
 797 1013 918 852 918 616 c 2
 918 0 l 1
 818 0 l 1
 818 616 l 2
 818 815 699 929 534 929 c 0
 355 929 250 808 250 596 c 1
 190 596 l 1
EndSplineSet
Colour: ffff00
EndChar

StartChar: uniE00E
Encoding: 57358 57358 430
GlifName: uniE_00E_
Width: 754
Flags: HMW
LayerCount: 2
Fore
SplineSet
250 506 m 1
 150 506 l 1
 150 740 278 995 581 995 c 2
 654 995 l 1
 654 911 l 1
 581 911 l 2
 364 911 250 726 250 506 c 1
EndSplineSet
Colour: ffff00
EndChar

StartChar: uniE00F
Encoding: 57359 57359 431
GlifName: uniE_00F_
Width: 1158
Flags: HMW
LayerCount: 2
Fore
SplineSet
639 1013 m 0
 927 1013 1058 753 1058 496 c 0
 1058 239 927 -20 639 -20 c 0
 361 -20 200 210 200 496 c 0
 200 782 361 1013 639 1013 c 0
614 933 m 0
 388 933 270 737 270 496 c 0
 270 254 388 60 614 60 c 0
 840 60 958 254 958 496 c 0
 958 737 840 933 614 933 c 0
EndSplineSet
Colour: ffff00
EndChar

StartChar: quoteright
Encoding: 8217 8217 433
GlifName: quoteright
Width: 598
Flags: HMW
LayerCount: 2
Fore
SplineSet
322 721 m 1
 256 769 l 1
 299 858 346 1034 346 1110 c 0
 346 1199 156 1093 156 1242 c 0
 156 1321 195 1386 292 1386 c 0
 390 1386 442 1310 442 1200 c 0
 442 1056 391 848 322 721 c 1
EndSplineSet
EndChar

StartChar: quoteleft
Encoding: 8216 8216 434
GlifName: quoteleft
Width: 598
Flags: HMW
LayerCount: 2
Fore
SplineSet
276 721 m 1
 207 848 156 1056 156 1200 c 0
 156 1310 208 1386 306 1386 c 0
 403 1386 442 1321 442 1242 c 0
 442 1093 252 1199 252 1110 c 0
 252 1034 299 858 342 769 c 1
 276 721 l 1
EndSplineSet
EndChar

StartChar: uniFD3E
Encoding: 64830 64830 461
GlifName: uniF_D_3E_
Width: 598
Flags: HW
LayerCount: 2
Fore
SplineSet
440 2 m 1
 356 -52 l 1
 222 158 150 394 150 681 c 0
 150 968 222 1203 356 1413 c 1
 440 1359 l 1
 316 1165 250 952 250 681 c 0
 250 410 316 196 440 2 c 1
EndSplineSet
EndChar

StartChar: uniFD3F
Encoding: 64831 64831 462
GlifName: uniF_D_3F_
Width: 598
Flags: HW
LayerCount: 2
Fore
SplineSet
158 1359 m 1
 242 1413 l 1
 376 1203 448 967 448 680 c 0
 448 393 376 158 242 -52 c 1
 158 2 l 1
 282 196 348 409 348 680 c 0
 348 951 282 1165 158 1359 c 1
EndSplineSet
EndChar

StartChar: uniE020
Encoding: 57376 57376 466
GlifName: uniE_020
Width: 878
Flags: HW
LayerCount: 2
Fore
SplineSet
669 582 m 1
 611 534 l 1
 574 578 517 619 431 619 c 0
 327 619 222 533 222 385 c 0
 222 272 333 231 508 231 c 1
 733 324 l 1
 761 254 l 1
 146 0 l 1
 118 70 l 1
 361 170 l 1
 244 193 146 251 146 385 c 0
 146 573 285 693 431 693 c 0
 543 693 622 638 669 582 c 1
EndSplineSet
Colour: ff00ff
EndChar

StartChar: uniE021
Encoding: 57377 57377 467
GlifName: uniE_021
Width: 560
Flags: HW
LayerCount: 2
Fore
SplineSet
563 1473 m 1
 632 1442 l 1
 576 1321 514 1283 419 1283 c 0
 375 1283 320 1298 253 1322 c 0
 206 1339 169 1351 137 1351 c 0
 71 1351 27 1291 -12 1235 c 1
 -72 1272 l 1
 -3 1399 72 1439 140 1439 c 0
 184 1439 209.618515867 1436.67527334 282 1409 c 0
 350 1383 392 1367 434 1367 c 0
 486 1367 532 1409 563 1473 c 1
330 1086 m 1
 330 25 l 1
 230 25 l 1
 230 1086 l 1
 330 1086 l 1
EndSplineSet
Colour: ff00ff
EndChar

StartChar: uniE022
Encoding: 57378 57378 468
GlifName: uniE_022
Width: 500
Flags: HW
LayerCount: 2
Fore
SplineSet
300 25 m 1
 200 25 l 1
 200 1186 l 1
 300 1186 l 1
 300 25 l 1
EndSplineSet
Colour: ff00ff
EndChar

StartChar: uniE023
Encoding: 57379 57379 469
GlifName: uniE_023
Width: 1360
Flags: HW
LayerCount: 2
Fore
SplineSet
1220 -524 m 1
 1256 -618 l 1
 1105 -675 957 -712 765 -712 c 0
 443 -712 126 -599 126 -251 c 0
 126 184 596 362 1096 500 c 1
 613 685 l 2
 573 698 537 703 507 703 c 0
 373 703 300 610 278 417 c 1
 178 429 l 1
 202 640 303 803 507 803 c 0
 551 803 596 797 645 779 c 2
 1234 556 l 1
 1234 434 l 1
 680 284 226 119 226 -251 c 0
 226 -509 453 -612 765 -612 c 0
 945 -612 1077 -577 1220 -524 c 1
EndSplineSet
Colour: ff00ff
EndChar

StartChar: uniE024
Encoding: 57380 57380 470
GlifName: uniE_024
Width: 936
Flags: HW
LayerCount: 2
Fore
SplineSet
808 302 m 0
 808 74 570 0 352 0 c 0
 271 0 187 11 106 32 c 1
 131 128 l 1
 204 109 279 100 352 100 c 0
 568 100 708 170 708 302 c 0
 708 454 616 607 400 789 c 1
 464 865 l 1
 688 677 808 498 808 302 c 0
EndSplineSet
Colour: ff00ff
EndChar

StartChar: uniE025
Encoding: 57381 57381 471
GlifName: uniE_025
Width: 834
Flags: HW
LayerCount: 2
Fore
SplineSet
510 527 m 1
 602 565 l 1
 668 401 706 247 706 106 c 0
 706 -178 499 -397 167 -518 c 1
 133 -424 l 1
 436 -313 606 -134 606 106 c 0
 606 229 572 371 510 527 c 1
EndSplineSet
Colour: ff00ff
EndChar

StartChar: uniE026
Encoding: 57382 57382 472
GlifName: uniE_026
Width: 2378
Flags: HW
LayerCount: 2
Fore
SplineSet
1963 0 m 0
 1866 0 1762 45 1708 145 c 1
 1658 54 1581 0 1473 0 c 1
 1412 0 1348 14 1286 67 c 1
 1286 -318 1022 -503 684 -503 c 0
 375 -503 128 -343 128 0 c 0
 128 130 186 355 272 514 c 1
 359 473 l 1
 277 318 228 111 228 0 c 0
 228 -265 401 -403 684 -403 c 0
 992 -403 1189 -241 1189 61 c 0
 1189 172 1146 318 1057 540 c 1
 1151 576 l 1
 1302 144 1331 100 1473 100 c 0
 1571 100 1646 163 1665 331 c 2
 1690 550 l 1
 1789 541 l 1
 1772 372 l 2
 1770 352 1770 332 1770 312 c 0
 1770 152 1867 100 1963 100 c 0
 2100 100 2150 200 2150 362 c 0
 2150 459 2128 570 2097 666 c 1
 2193 696 l 1
 2226 592 2250 473 2250 362 c 0
 2250 184 2180 0 1963 0 c 0
EndSplineSet
Colour: ff00ff
EndChar

StartChar: uniE027
Encoding: 57383 57383 473
GlifName: uniE_027
Width: 2322
Flags: HW
LayerCount: 2
Fore
SplineSet
1671 0 m 0
 1541 0 1399 30 1289 78 c 1
 1289 -315 1029 -503 684 -503 c 0
 375 -503 128 -343 128 0 c 0
 128 130 186 355 272 514 c 1
 359 473 l 1
 277 318 228 111 228 0 c 0
 228 -265 401 -403 684 -403 c 0
 992 -403 1189 -241 1189 61 c 0
 1189 172 1146 318 1057 540 c 1
 1151 576 l 1
 1208 451 1253 321 1287 190 c 1
 1450 516 1674 649 1864 649 c 0
 2044 649 2193 530 2193 342 c 0
 2193 95 1918 0 1671 0 c 0
1378 149 m 1
 1467 117 1571 100 1671 100 c 0
 1914 100 2093 193 2093 342 c 0
 2093 468 2001 549 1864 549 c 0
 1723 549 1531 452 1378 149 c 1
EndSplineSet
Colour: ff00ff
EndChar

StartChar: uniE028
Encoding: 57384 57384 474
GlifName: uniE_028
Width: 1515
Flags: HW
LayerCount: 2
Fore
SplineSet
528 127 m 1
 528 100 l 1
 1179 107 1265 246 1265 409 c 0
 1265 523 1177 590 1060 590 c 0
 919 590 656 467 528 127 c 1
428 100 m 1
 428 1186 l 1
 528 1186 l 1
 528 350 l 1
 682 589 906 690 1060 690 c 0
 1215 690 1365 589 1365 409 c 0
 1365 153 1171 0 478 0 c 2
 105 0 l 1
 105 100 l 1
 428 100 l 1
EndSplineSet
Colour: ff00ff
EndChar

StartChar: uniE029
Encoding: 57385 57385 475
GlifName: uniE_029
Width: 1299
Flags: HW
LayerCount: 2
Fore
SplineSet
926 917 m 1
 850 853 l 1
 799 914 716 971 596 971 c 0
 450 971 304 851 304 644 c 0
 304 497 472 427 696 427 c 0
 783 427 873 440 954 453 c 1
 975 348 l 1
 580 297 231 153 231 -202 c 0
 231 -448 470 -594 772 -594 c 0
 905 -594 1034 -566 1129 -525 c 1
 1169 -617 l 1
 1060 -664 919 -694 772 -694 c 0
 448 -694 131 -530 131 -202 c 0
 131 67 304 242 529 341 c 1
 365 371 204 458 204 644 c 0
 204 903 394 1071 596 1071 c 0
 750 1071 861 994 926 917 c 1
EndSplineSet
Colour: ff00ff
EndChar

StartChar: uniE02A
Encoding: 57386 57386 476
GlifName: uniE_02A_
Width: 811
Flags: HW
LayerCount: 2
Fore
SplineSet
0 100 m 0
 811 100 l 1
 811 0 l 1
 0 0 l 0
 -28 0 -50 22 -50 50 c 0
 -50 78 -28 100 0 100 c 0
EndSplineSet
Colour: ff00ff
EndChar

StartChar: uniE02B
Encoding: 57387 57387 477
GlifName: uniE_02B_
Width: 1585
Flags: HW
LayerCount: 2
Fore
SplineSet
1315 1211 m 1
 1415 1211 l 1
 1415 492 l 2
 1415 325 1388 212 1322 136 c 0
 1233 33 1073 0 812 0 c 0
 492 0 128 34 128 365 c 0
 128 442 143 535 160 607 c 1
 258 583 l 1
 242 517 228 429 228 365 c 0
 228 142 468 100 826 100 c 0
 1060 100 1185 119 1250 193 c 0
 1301 252 1315 346 1315 492 c 2
 1315 1211 l 1
EndSplineSet
Colour: ff00ff
EndChar

StartChar: uniE02C
Encoding: 57388 57388 478
GlifName: uniE_02C_
Width: 1268
Flags: HW
LayerCount: 2
Fore
SplineSet
1007 1186 m 1
 1107 1186 l 1
 1107 21 l 2
 1107 -329 922 -503 602 -503 c 0
 314 -503 128 -346 128 -74 c 0
 128 38 156 169 216 316 c 1
 307 274 l 1
 254 137 227 18 227 -80 c 0
 227 -288 367 -403 618 -403 c 0
 874 -403 1007 -275 1007 21 c 2
 1007 1186 l 1
EndSplineSet
Colour: ff00ff
EndChar

StartChar: uniE02D
Encoding: 57389 57389 479
GlifName: uniE_02D_
Width: 1199
Flags: HW
LayerCount: 2
Fore
SplineSet
396 185 m 1
 413 367 498 646 760 646 c 0
 958 646 1069 460 1069 277 c 0
 1069 76 934 0 793 0 c 0
 697 0 597 27 522 57 c 0
 476 75 449 85 401 85 c 0
 300 85 228 7 228 -124 c 2
 228 -785 l 1
 128 -785 l 1
 128 -124 l 2
 128 43 232 182 396 185 c 1
495 171 m 1
 584 146 689 100 793 100 c 0
 898 100 969 136 969 277 c 0
 969 428 882 546 760 546 c 0
 589 546 510 353 495 171 c 1
EndSplineSet
Colour: ff00ff
EndChar

StartChar: uniE02E
Encoding: 57390 57390 480
GlifName: uniE_02E_
Width: 869
Flags: HW
LayerCount: 2
Fore
SplineSet
435 100 m 0
 564 100 628 170 628 281 c 0
 628 400 548 537 435 646 c 1
 323 538 241 400 241 281 c 0
 241 170 306 100 435 100 c 0
435 0 m 0
 258 0 141 116 141 281 c 0
 141 476 288 655 435 780 c 1
 583 654 728 476 728 281 c 0
 728 116 612 0 435 0 c 0
EndSplineSet
Colour: ff00ff
EndChar

StartChar: uniE02F
Encoding: 57391 57391 481
GlifName: uniE_02F_
Width: 928
Flags: HW
LayerCount: 2
Fore
SplineSet
698 29 m 1
 633 10 565 -1 488 -1 c 0
 315 -1 162 75 162 278 c 0
 162 468 288 675 470 675 c 0
 760 675 800 251 800 73 c 0
 800 -223 578 -408 166 -514 c 1
 141 -418 l 1
 516 -322 678 -175 698 29 c 1
698 134 m 1
 687 341 619 575 470 575 c 0
 372 575 262 438 262 278 c 0
 262 145 339 99 488 99 c 0
 567 99 629 111 698 134 c 1
EndSplineSet
Colour: ff00ff
EndChar

StartChar: uniE030
Encoding: 57392 57392 482
GlifName: uniE_030
Width: 0
Flags: HW
LayerCount: 2
Fore
SplineSet
-234 1867 m 0
 -234 1810 -217 1758 -187 1714 c 1
 -237 1680 l 1
 -273 1734 -294 1798 -294 1867 c 0
 -294 2053 -144 2203 42 2203 c 1
 42 2143 l 1
 -111 2143 -234 2019 -234 1867 c 0
EndSplineSet
Colour: ff00ff
EndChar

StartChar: uniE031
Encoding: 57393 57393 483
GlifName: uniE_031
Width: 0
Flags: HW
LayerCount: 2
Fore
SplineSet
186 1745 m 1
 210 1691 l 1
 -186 1511 l 1
 -210 1565 l 1
 186 1745 l 1
EndSplineSet
Colour: ff00ff
EndChar

StartChar: uniE032
Encoding: 57394 57394 484
GlifName: uniE_032
Width: 0
Flags: HW
LayerCount: 2
Fore
SplineSet
47 1701 m 1
 -24 1728 -100 1778 -100 1861 c 0
 -100 1948 -20 2014 54 2014 c 0
 144 2014 185 1929 185 1870 c 0
 185 1682 -20.8583984375 1552.3046875 -172 1512 c 1
 -188 1570 l 1
 -107 1592 -14 1639 47 1701 c 1
87 1751 m 1
 111 1788 125 1828 125 1870 c 0
 125 1909 98 1954 54 1954 c 0
 12 1954 -40 1910 -40 1861 c 0
 -40 1817 10 1776 87 1751 c 1
EndSplineSet
Colour: ff00ff
EndChar

StartChar: uniE033
Encoding: 57395 57395 485
GlifName: uniE_033
Width: 0
Flags: HW
LayerCount: 2
Fore
SplineSet
186 1693 m 0
 186 1751 175 1794 157 1844 c 1
 213 1864 l 1
 233 1810 246 1759 246 1693 c 0
 246 1600 192 1541 124 1541 c 0
 76 1541 29 1571 0 1622 c 1
 -30 1569 -76 1541 -124 1541 c 0
 -192 1541 -246 1600 -246 1693 c 0
 -246 1759 -233 1810 -213 1864 c 1
 -157 1844 l 1
 -175 1794 -186 1751 -186 1693 c 0
 -186 1622 -152 1601 -116 1601 c 0
 -77.611328125 1601 -30 1640 -30 1704 c 2
 -30 1774 l 1
 30 1774 l 1
 30 1704 l 2
 30 1640 76.87109375 1601 116 1601 c 0
 152 1601 186 1622 186 1693 c 0
EndSplineSet
Colour: ff00ff
EndChar

StartChar: uniE034
Encoding: 57396 57396 486
GlifName: uniE_034
Width: 0
Flags: HW
LayerCount: 2
Fore
SplineSet
0 1848 m 0
 -69 1848 -124 1794 -124 1725 c 0
 -124 1656 -69 1601 0 1601 c 0
 68 1601 124 1657 124 1725 c 0
 124 1793 69 1848 0 1848 c 0
0 1908 m 0
 101 1908 184 1827 184 1725 c 0
 184 1623 102 1541 0 1541 c 0
 -103 1541 -184 1624 -184 1725 c 0
 -184 1826 -103 1908 0 1908 c 0
EndSplineSet
Colour: ff00ff
EndChar

StartChar: uniE035
Encoding: 57397 57397 487
GlifName: uniE_035
Width: 0
Flags: HW
LayerCount: 2
Fore
SplineSet
-246 1537 m 1
 -219 1593 -164 1654 -87 1654 c 0
 -53 1654 -18 1641 16 1615 c 0
 43 1594 67 1587 86 1587 c 0
 128 1587 168 1624 190 1675 c 1
 246 1651 l 1
 220 1588 164 1527 86 1527 c 0
 51 1527 15 1540 -20 1567 c 0
 -46 1587 -69 1594 -87 1594 c 0
 -130 1594 -170 1557 -192 1511 c 1
 -246 1537 l 1
EndSplineSet
Colour: ff00ff
EndChar

StartChar: uniE036
Encoding: 57398 57398 488
GlifName: uniE_036
Width: 0
Flags: HW
LayerCount: 2
Fore
SplineSet
-186 1511 m 1
 -210 1565 l 1
 -102 1615 l 1
 -147 1665 -171 1725 -171 1781 c 0
 -171 1875 -102 1957 22 1957 c 2
 104 1957 l 1
 104 1897 l 1
 22 1897 l 2
 -72 1897 -111 1843 -111 1781 c 0
 -111 1737 -89 1682 -44 1641 c 1
 186 1745 l 1
 210 1691 l 1
 -186 1511 l 1
EndSplineSet
Colour: ff00ff
EndChar

StartChar: uniE037
Encoding: 57399 57399 489
GlifName: uniE_037
Width: 0
Flags: HW
LayerCount: 2
Fore
SplineSet
-230 1818 m 1
 -182 1854 l 1
 0 1611 l 1
 182 1854 l 1
 230 1818 l 1
 0 1511 l 1
 -230 1818 l 1
EndSplineSet
Colour: ff00ff
EndChar

StartChar: uniE038
Encoding: 57400 57400 490
GlifName: uniE_038
Width: 1782
Flags: HW
LayerCount: 2
Back
SplineSet
1556 655 m 0
 1583 568 1600 479 1600 398 c 0
 1600 126 1363 50 891 50 c 0
 419 50 182 126 182 398 c 0
 182 479 199 568 226 655 c 1024
EndSplineSet
Fore
SplineSet
1604 670 m 1
 1632 579 1650 486 1650 398 c 0
 1650 76 1356 0 891 0 c 0
 426 0 132 76 132 398 c 0
 132 486 150 579 178 670 c 1
 274 640 l 1
 248 557 232 472 232 398 c 0
 232 176 412 100 891 100 c 0
 1370 100 1550 176 1550 398 c 0
 1550 472 1534 557 1508 640 c 1
 1604 670 l 1
EndSplineSet
Colour: ff00ff
EndChar

StartChar: uniE039
Encoding: 57401 57401 491
GlifName: uniE_039
Width: 1415
Flags: HW
LayerCount: 2
Fore
SplineSet
1185 135 m 1
 1174 342 1106 576 957 576 c 0
 859 576 749 439 749 279 c 0
 749 146 826 100 975 100 c 0
 1054 100 1116 112 1185 135 c 1
1188 32 m 1
 1123 13 1052 0 975 0 c 0
 802 0 649 76 649 279 c 0
 649 469 775 676 957 676 c 0
 1245 676 1287 260 1287 74 c 0
 1287 -311 1022 -503 684 -503 c 0
 375 -503 128 -343 128 0 c 0
 128 93 158 234 206 365 c 1
 298 333 l 1
 253 209 228 80 228 0 c 0
 228 -265 401 -403 684 -403 c 0
 982 -403 1176 -251 1188 32 c 1
EndSplineSet
Colour: ff00ff
EndChar

StartChar: uniE03A
Encoding: 57402 57402 492
GlifName: uniE_03A_
Width: 0
Flags: HW
LayerCount: 2
Fore
SplineSet
-30 1869 m 1
 30 1869 l 1
 30 1540 l 1
 -30 1540 l 1
 -30 1869 l 1
EndSplineSet
Colour: ff00ff
EndChar

StartChar: uniE03B
Encoding: 57403 57403 493
GlifName: uniE_03B_
Width: 1752
Flags: HW
LayerCount: 2
Back
SplineSet
1522 482 m 1
 1511 689 1443 923 1294 923 c 0
 1196 923 1086 786 1086 626 c 0
 1086 493 1163 447 1312 447 c 0
 1391 447 1453 459 1522 482 c 1
1624 421 m 0
 1624 81 1294 0 891 0 c 0
 496 0 129 42 129 375 c 0
 129 484 162 586 190 670 c 1
 285 638 l 1
 257 555 229 464 229 375 c 0
 229 154 470 100 891 100 c 0
 1279 100 1496 174 1521 377 c 1
 1456 358 1389 347 1312 347 c 0
 1139 347 986 423 986 626 c 0
 986 816 1112 1023 1294 1023 c 0
 1584 1023 1624 599 1624 421 c 0
891 50 m 0
 350 50 182 126 182 398 c 0
 182 479 199 568 226 655 c 1024
EndSplineSet
Fore
SplineSet
1522 482 m 1
 1511 689 1443 923 1294 923 c 0
 1196 923 1086 786 1086 626 c 0
 1086 493 1163 447 1312 447 c 0
 1391 447 1453 459 1522 482 c 1
1624 421 m 0
 1624 81 1294 0 891 0 c 1
 355 0 132 82 132 398 c 0
 132 486 150 579 178 670 c 1
 274 640 l 1
 248 557 232 472 232 398 c 0
 232 170 345 100 891 100 c 1
 1279 100 1496 174 1521 377 c 1
 1456 358 1389 347 1312 347 c 0
 1139 347 986 423 986 626 c 0
 986 816 1112 1023 1294 1023 c 0
 1584 1023 1624 599 1624 421 c 0
EndSplineSet
Colour: ff00ff
EndChar

StartChar: uniE03C
Encoding: 57404 57404 494
GlifName: uniE_03C_
Width: 1848
Flags: HW
LayerCount: 2
Back
SplineSet
1698 1271 m 0
 1449 1215 1156 1103 944 967 c 1
 944 879 l 1
 1186 711 1390 501 1390 321 c 0
 1390 86 1118 50 791 50 c 0
 369 50 182 126 182 398 c 0
 182 479 199 568 226 655 c 1024
EndSplineSet
Fore
SplineSet
178 670 m 1
 274 640 l 1
 248 557 232 472 232 398 c 0
 232 169 368 100 791 100 c 0
 1132 100 1340 143 1340 321 c 0
 1340 477.15625 1132.91894531 682.34375 894 853 c 1
 894 994 l 1
 1117.32617188 1139.64746094 1421.734375 1260.70507812 1687 1320 c 1
 1709 1222 l 1
 1475 1169 1197 1064 994 939 c 1
 994 905 l 1
 1229 738 1440 529 1440 321 c 0
 1440 29 1104 0 791 0 c 0
 370 0 132 83 132 398 c 0
 132 486 150 579 178 670 c 1
EndSplineSet
Colour: ff00ff
EndChar

StartChar: uniE03D
Encoding: 57405 57405 495
GlifName: uniE_03D_
Width: 1512
Flags: HW
LayerCount: 2
Fore
SplineSet
1282 43 m 0
 1282 206 1198 394 1128 538 c 1
 1218 578 l 1
 1288 434 1383 234 1383 39 c 0
 1383 -326 1055 -503 727 -503 c 0
 405 -503 129 -326 129 5 c 0
 129 188 203 392 269 524 c 1
 353 473 l 1
 294 353 229 170 229 4 c 0
 229 -271 447 -403 723 -403 c 0
 1025 -403 1282 -248 1282 43 c 0
EndSplineSet
Colour: ff00ff
EndChar

StartChar: uniE03E
Encoding: 57406 57406 496
GlifName: uniE_03E_
Width: 1449
Flags: HW
LayerCount: 2
Fore
SplineSet
1288 649 m 1
 1268 552 l 1
 1214 567 1162 575 1110 575 c 0
 845 575 731 442 731 270 c 0
 731 113 843 99 1037 90 c 0
 1174 84 1322 54 1322 -153 c 0
 1322 -411 1054 -503 733 -503 c 0
 432 -503 178 -384 178 -30 c 0
 178 112 213 279 237 356 c 1
 333 326 l 1
 312 258 278 99 278 -30 c 0
 278 -304 454 -403 747 -403 c 0
 1036 -403 1222 -323 1222 -153 c 0
 1222 -28 1166 -17 1025 -10 c 0
 839 -1 631 27 631 264 c 0
 631 508 788 675 1111 675 c 0
 1170 675 1229 667 1288 649 c 1
EndSplineSet
Colour: ff00ff
EndChar

StartChar: uniE03F
Encoding: 57407 57407 497
GlifName: uniE_03F_
Width: 1864
Flags: HW
LayerCount: 2
Back
SplineSet
944 879 m 0
 1237 682 1353 502 1438 335 c 0
 1526.911401 160.315247452 1605 50 1863 50 c 1
 1864 50 l 1024
1698 1271 m 0
 1449 1215 1156 1103 944 967 c 1
 944 879 l 1
 1186 711 1390 501 1390 321 c 0
 1390 86 1118 50 791 50 c 0
 369 50 182 126 182 398 c 0
 182 479 199 568 226 655 c 1024
EndSplineSet
Fore
SplineSet
1864 100 m 1
 1864 0 l 1
 1863 0 l 2
 1621 0 1514 100 1431 243 c 1
 1375 23 1073 0 791 0 c 0
 370 0 132 83 132 398 c 0
 132 486 150 579 178 670 c 1
 274 640 l 1
 248 557 232 472 232 398 c 0
 232 169 368 100 791 100 c 0
 1132 100 1340 143 1340 321 c 0
 1340 477.156242338 1132.91851259 682.34391958 894 853 c 1
 894 994 l 1
 1117.32625436 1139.64755719 1421.73453305 1260.70536621 1687 1320 c 1
 1709 1222 l 1
 1475 1169 1197 1064 994 939 c 1
 994 905 l 1
 1278 709 1398 525 1483 358 c 0
 1570 188 1626 100 1863 100 c 2
 1864 100 l 1
EndSplineSet
Colour: ff00ff
EndChar

StartChar: uniE040
Encoding: 57408 57408 498
GlifName: uniE_040
Width: 1660
Flags: HW
LayerCount: 2
Fore
SplineSet
270 524 m 1
 354 473 l 1
 294 352 229 172 229 5 c 0
 229 -269 446 -403 724 -403 c 0
 1026 -403 1282 -248 1282 43 c 0
 1282 206 1198 394 1128 538 c 1
 1217 576 l 1
 1342 282 l 2
 1395 157 1467 100 1659 100 c 2
 1660 100 l 1
 1660 0 l 1
 1659 0 l 2
 1546 0 1457 19 1383 67 c 1
 1383 -325 1074.59951715 -503 728 -503 c 0
 403 -503 129 -325 129 7 c 0
 129 192 203 392 270 524 c 1
EndSplineSet
Colour: ff00ff
EndChar

StartChar: uniE041
Encoding: 57409 57409 499
GlifName: uniE_041
Width: 547
Flags: W
HStem: 0 100<-49.7461 204.654>
VStem: 322 93<209.922 629.996>
LayerCount: 2
Fore
SplineSet
350 732 m 1
 390 610 415 489 415 382 c 0
 415 162 308 0 0 0 c 0
 -28 0 -50 22 -50 50 c 0
 -50 78 -28 100 0 100 c 0
 243 100 322 215 322 377 c 0
 322 473 294 585 256 700 c 1
 350 732 l 1
EndSplineSet
Colour: ff00ff
EndChar

StartChar: uniE042
Encoding: 57410 57410 500
GlifName: uniE_042
Width: 767
Flags: W
HStem: 0 100<-49.7461 208.249 558.054 767>
VStem: 334 100<231.171 569>
LayerCount: 2
Fore
SplineSet
0 100 m 0
 142 100 227 135 276 208 c 0
 319 273 334 367 334 492 c 2
 334 569 l 1
 434 569 l 1
 434 492 l 2
 434 376 446 286 483 222 c 0
 530 140 616 100 766 100 c 2
 767 100 l 1
 767 0 l 1
 766 0 l 1
 575 0 447 63 384 198 c 1
 321 64 192 0 0 0 c 0
 -28 0 -50 22 -50 50 c 0
 -50 78 -28 100 0 100 c 0
EndSplineSet
Colour: ff00ff
EndChar

StartChar: uniE043
Encoding: 57411 57411 501
GlifName: uniE_043
Width: 1453
Flags: HW
LayerCount: 2
Fore
SplineSet
1453 100 m 1
 1453 0 l 1
 1200 0 l 1
 1285 -42 1322 -125 1322 -208 c 0
 1322 -421 1111 -583 738 -583 c 0
 368 -583 140 -411 140 -60 c 0
 140 154 200 330 277 501 c 1
 367 454 l 1
 294 291 238 129 238 -71 c 0
 238 -355 414 -483 734 -483 c 0
 1105 -483 1222 -322 1222 -224 c 0
 1222 -91 1084 0 742 0 c 1
 742 100 l 1
 1453 100 l 1
EndSplineSet
Colour: ff00ff
EndChar

StartChar: uniE044
Encoding: 57412 57412 502
GlifName: uniE_044
Width: 596
Flags: HW
LayerCount: 2
Fore
SplineSet
200 1186 m 25
 300 1186 l 25
 300 366 l 2
 300 274 314 210 351 168 c 0
 395 118 472 100 595 100 c 1
 596 100 l 9
 596 0 l 17
 595 0 l 1
 454 0 351 33 285 102 c 0
 228 162 200 249 200 366 c 2
 200 1186 l 25
EndSplineSet
Colour: ff00ff
EndChar

StartChar: uniE045
Encoding: 57413 57413 503
GlifName: uniE_045
Width: 1398
Flags: HW
LayerCount: 2
Fore
SplineSet
1220 -524 m 1
 1256 -618 l 1
 1105 -675 957 -712 765 -712 c 0
 443 -712 126 -599 126 -251 c 0
 126 184 596 362 1096 500 c 1
 613 685 l 2
 573 698 537 703 507 703 c 0
 373 703 300 610 278 417 c 1
 178 429 l 1
 202 640 303 803 507 803 c 0
 551 803 596 797 645 779 c 2
 1234 556 l 1
 1234 434 l 1
 1151.98177267 411.792898738 1072.15534688 389.257027245 995.669418619 365.775853783 c 1
 1082.11443667 229.318815091 1185.18453472 99.999999994 1397 100 c 2
 1398 100 l 1
 1398 0 l 1
 1397 0 l 2
 1139.7877763 0 1000.92464344 157.798787786 897.15864548 334.316625213 c 1
 507.257500072 204.446712622 226 40.2231222962 226 -251 c 0
 226 -509 453 -612 765 -612 c 0
 945 -612 1077 -577 1220 -524 c 1
EndSplineSet
Colour: ff00ff
EndChar

StartChar: uniE046
Encoding: 57414 57414 504
GlifName: uniE_046
Width: 1316
Flags: HW
LayerCount: 2
Fore
SplineSet
126 414 m 1
 156 598 231 802 436 802 c 0
 491 802 553 786 620 754 c 2
 1157 511 l 1
 1157 389 l 1
 782 125 462 0 0 0 c 0
 -27 0 -50 23 -50 50 c 0
 -50 77 -27 100 0 100 c 0
 425 100 725 207 1049 445 c 1
 576 664 l 2
 519 691 473 702 436 702 c 0
 319 702 254 584 224 398 c 1
 126 414 l 1
EndSplineSet
Colour: ff00ff
EndChar

StartChar: uniE047
Encoding: 57415 57415 505
GlifName: uniE_047
Width: 1316
Flags: HW
LayerCount: 2
Fore
SplineSet
126 414 m 1
 156 598 231 802 436 802 c 0
 491 802 553 786 620 754 c 2
 1157 511 l 1
 1157 389 l 1
 1097 347 1038 307 980 272 c 1
 1053 178 1140 100 1315 100 c 2
 1316 100 l 1
 1316 0 l 1
 1315 0 l 2
 1105 0 981 100 891 221 c 1
 618 71 350 0 0 0 c 0
 -27 0 -50 23 -50 50 c 0
 -50 77 -27 100 0 100 c 0
 425 100 725 207 1049 445 c 1
 576 664 l 2
 519 691 473 702 436 702 c 0
 319 702 254 584 224 398 c 1
 126 414 l 1
EndSplineSet
Colour: ff00ff
EndChar

StartChar: uniE048
Encoding: 57416 57416 506
GlifName: uniE_048
Width: 1180
Flags: HW
LayerCount: 2
Fore
SplineSet
1180 100 m 1
 1180 0 l 1
 1179 0 l 1
 1012 0 892 40 794 202 c 1
 737 64 584 0 429 0 c 0
 308 0 183 28 80 105 c 1
 137 187 l 1
 225 122 328 100 429 100 c 0
 595 100 715 183 715 311 c 0
 715 344 707 383 687 429 c 2
 524 812 l 1
 616 852 l 1
 815 385 l 2
 923 130 996 100 1179 100 c 1
 1180 100 l 1
EndSplineSet
Colour: ff00ff
EndChar

StartChar: uniE049
Encoding: 57417 57417 507
GlifName: uniE_049
Width: 960
Flags: HW
LayerCount: 2
Fore
SplineSet
510 527 m 1
 602 565 l 1
 692 260 l 2
 726 146 793 100 959 100 c 1
 960 100 l 1
 960 0 l 1
 959 0 l 1
 849 0 766 25 705 73 c 1
 693 -195 486 -401 167 -518 c 1
 133 -424 l 1
 436 -313 606 -134 606 106 c 0
 606 198 596 289 510 527 c 1
EndSplineSet
Colour: ff00ff
EndChar

StartChar: uniE04A
Encoding: 57418 57418 508
GlifName: uniE_04A_
Width: 2614
Flags: HW
LayerCount: 2
Fore
SplineSet
2213 650 m 1
 2251 456 l 2
 2300 216 2324 100 2613 100 c 1
 2614 100 l 1
 2614 0 l 1
 2613 0 l 1
 2389 0 2284 77 2225 194 c 1
 2190 85 2112 0 1963 0 c 0
 1866 0 1762 45 1708 145 c 1
 1658 54 1581 0 1473 0 c 1
 1412 0 1348 14 1286 67 c 1
 1286 -318 1022 -503 684 -503 c 0
 375 -503 128 -343 128 0 c 0
 128 130 186 355 272 514 c 1
 359 473 l 1
 277 318 228 111 228 0 c 0
 228 -265 401 -403 684 -403 c 0
 992 -403 1189 -241 1189 61 c 0
 1189 172 1146 318 1057 540 c 1
 1151 576 l 1
 1302 144 1331 100 1473 100 c 0
 1571 100 1646 163 1665 331 c 2
 1690 550 l 1
 1789 541 l 1
 1772 372 l 2
 1770 352 1770 332 1770 312 c 0
 1770 152 1867 100 1963 100 c 0
 2102 100 2149 201 2149 360 c 0
 2149 412 2146 465 2137 516 c 2
 2115 630 l 1
 2213 650 l 1
EndSplineSet
Colour: ff00ff
EndChar

StartChar: uniE04B
Encoding: 57419 57419 509
GlifName: uniE_04B_
Width: 1538
Flags: HW
LayerCount: 2
Fore
SplineSet
1369 649 m 1
 1395 528 1410 448 1410 318 c 0
 1410 242 1391 172 1355 118 c 0
 1307 46 1229 0 1128 0 c 0
 1008 0 924 69 880 158 c 1
 836 69 752 0 632 0 c 0
 501 0 415 82 373 183 c 1
 310 65 192 0 0 0 c 0
 -28 0 -50 22 -50 50 c 0
 -50 78 -28 100 0 100 c 0
 132 100 215 128 266 192 c 0
 316 255 334 353 334 492 c 2
 334 569 l 1
 434 569 l 1
 434 410 l 2
 434 302 458 211 501 159 c 0
 532 121 572 100 632 100 c 0
 692 100 732 121 763 159 c 0
 806 211 830 302 830 410 c 2
 830 559 l 1
 930 559 l 1
 930 410 l 2
 930 302 954 211 997 159 c 0
 1028 121 1068 100 1128 100 c 0
 1198 100 1247 130 1276 178 c 0
 1299 216 1310 264 1310 318 c 0
 1310 441 1296 518 1272 628 c 1
 1369 649 l 1
EndSplineSet
Colour: ff00ff
EndChar

StartChar: uniE04C
Encoding: 57420 57420 510
GlifName: uniE_04C_
Width: 1735
Flags: HW
LayerCount: 2
Fore
SplineSet
1369 649 m 1
 1402 411 l 2
 1418 309 1443 231 1493 179 c 0
 1543 127 1618 100 1734 100 c 1
 1735 100 l 1
 1735 0 l 1
 1734 0 l 1
 1567 0 1449 54 1380 164 c 1
 1339 69 1252 0 1128 0 c 0
 1008 0 924 69 880 158 c 1
 836 69 752 0 632 0 c 0
 501 0 415 82 373 183 c 1
 310 65 192 0 0 0 c 0
 -28 0 -50 22 -50 50 c 0
 -50 78 -28 100 0 100 c 0
 131 100 214 128 265 190 c 0
 316 253 334 351 334 492 c 2
 334 569 l 1
 434 569 l 1
 434 410 l 2
 434 302 458 211 501 159 c 0
 532 121 572 100 632 100 c 0
 697 100 742 127 773 170 c 0
 815 229 830 318 830 410 c 2
 830 559 l 25
 930 559 l 25
 930 410 l 2
 930 322 944 237 982 178 c 0
 1013 130 1059 100 1128 100 c 0
 1194 100 1241 127 1271 170 c 0
 1297 208 1310 260 1310 318 c 0
 1310 388 1298 478 1271 633 c 1
 1369 649 l 1
EndSplineSet
Colour: ff00ff
EndChar

StartChar: uniE04D
Encoding: 57421 57421 511
GlifName: uniE_04D_
Width: 2416
Flags: HW
LayerCount: 2
Fore
SplineSet
1287 190 m 1
 1450 516 1674 649 1864 649 c 0
 2044 649 2193 530 2193 342 c 0
 2193 284 2177 234 2151 192 c 1
 2190 138 2260 100 2415 100 c 1
 2416 100 l 1
 2416 0 l 1
 2415 0 l 1
 2254 0 2147 42 2083 117 c 1
 1980 35 1821 0 1671 0 c 0
 1541 0 1399 30 1289 78 c 1
 1289 -315 1029 -503 684 -503 c 0
 375 -503 128 -343 128 0 c 0
 128 130 186 355 272 514 c 1
 359 473 l 1
 277 318 228 111 228 0 c 0
 228 -265 401 -403 684 -403 c 0
 992 -403 1189 -241 1189 61 c 0
 1189 172 1146 318 1057 540 c 1
 1151 576 l 1
 1208 451 1253 321 1287 190 c 1
1378 149 m 1
 1467 117 1571 100 1671 100 c 0
 1914 100 2093 193 2093 342 c 0
 2093 468 2001 549 1864 549 c 0
 1723 549 1531 452 1378 149 c 1
EndSplineSet
Colour: ff00ff
EndChar

StartChar: uniE04E
Encoding: 57422 57422 512
GlifName: uniE_04E_
Width: 1612
Flags: HW
LayerCount: 2
Fore
SplineSet
0 100 m 0
 126 100 202 128 249 176 c 0
 304 232 332 329 334 477 c 2
 334 569 l 1
 434 569 l 1
 434 344 l 2
 434 245 462 193 511 159 c 1
 701 543 959 690 1157 690 c 0
 1312 690 1462 589 1462 409 c 0
 1462 146 1098 0 829 0 c 0
 610 0 444 32 371 173 c 1
 304 55 179 0 0 0 c 0
 -28 0 -50 22 -50 50 c 0
 -50 78 -28 100 0 100 c 0
603 121 m 1
 661 106 738 100 829 100 c 0
 1090 100 1362 250 1362 409 c 0
 1362 523 1274 590 1157 590 c 0
 1010 590 782 479 603 121 c 1
EndSplineSet
Colour: ff00ff
EndChar

StartChar: uniE04F
Encoding: 57423 57423 513
GlifName: uniE_04F_
Width: 1635
Flags: HW
LayerCount: 2
Fore
SplineSet
603 121 m 1
 661 106 738 100 829 100 c 0
 1090 100 1362 250 1362 409 c 0
 1362 523 1274 590 1157 590 c 0
 1010 590 782 479 603 121 c 1
434 569 m 1
 434 344 l 2
 434 248 462 193 511 159 c 1
 701 543 959 690 1157 690 c 0
 1312 690 1462 589 1462 409 c 0
 1462 326 1426 255 1368 196 c 1
 1416 130 1495 100 1634 100 c 1
 1635 100 l 1
 1635 0 l 1
 1634 0 l 1
 1478 0 1361 42 1291 133 c 1
 1161 46 980 0 829 0 c 0
 611 0 443 31 370 172 c 1
 303 55 179 0 0 0 c 0
 -27 0 -50 23 -50 50 c 0
 -50 77 -27 100 0 100 c 0
 131 100 214 131 264 192 c 0
 317 257 334 357 334 492 c 2
 334 569 l 1
 434 569 l 1
EndSplineSet
Colour: ff00ff
EndChar

StartChar: uniE050
Encoding: 57424 57424 514
GlifName: uniE_050
Width: 1538
Flags: HW
LayerCount: 2
Fore
SplineSet
528 100 m 1
 1179 107 1265 246 1265 409 c 0
 1265 523 1177 590 1060 590 c 0
 919 590 656 440 528 100 c 1
428 100 m 1
 428 1186 l 25
 528 1186 l 25
 528 323 l 1
 682 562 906 690 1060 690 c 0
 1215 690 1365 589 1365 409 c 0
 1365 321 1342 245 1283 183 c 1
 1325 126 1417 100 1537 100 c 1
 1538 100 l 1
 1538 0 l 1
 1537 0 l 1
 1382 0 1280 37 1204 121 c 1
 1072 43 845 0 478 0 c 2
 105 0 l 25
 105 100 l 25
 428 100 l 1
EndSplineSet
Colour: ff00ff
EndChar

StartChar: uniE051
Encoding: 57425 57425 515
GlifName: uniE_051
Width: 1317
Flags: HW
LayerCount: 2
Fore
SplineSet
308 100 m 1
 959 107 1045 246 1045 409 c 0
 1045 523 957 590 840 590 c 0
 698 590 436 440 308 100 c 1
0 100 m 0
 208 100 l 1
 208 1186 l 1
 308 1186 l 1
 308 323 l 1
 462 562 686 690 840 690 c 0
 995 690 1145 589 1145 409 c 0
 1145 153 951 0 258 0 c 2
 0 0 l 0
 -28 0 -50 22 -50 50 c 0
 -50 78 -28 100 0 100 c 0
EndSplineSet
Colour: ff00ff
EndChar

StartChar: uniE052
Encoding: 57426 57426 516
GlifName: uniE_052
Width: 1318
Flags: HW
LayerCount: 2
Fore
SplineSet
308 100 m 1
 960 107 1045 246 1045 409 c 0
 1045 523 957 590 840 590 c 0
 699 590 436 440 308 100 c 1
0 100 m 0
 208 101 l 1
 208 1186 l 25
 308 1186 l 25
 308 323 l 1
 462 562 685 690 840 690 c 0
 995 690 1145 589 1145 409 c 0
 1145 321 1122 245 1063 183 c 1
 1107 125 1197 100 1317 100 c 1
 1318 100 l 1
 1318 0 l 1
 1317 0 l 1
 1162 0 1059 37 984 121 c 1
 852 43 625 0 258 0 c 2
 0 0 l 0
 -28 0 -50 22 -50 50 c 0
 -50 78 -28 100 0 100 c 0
EndSplineSet
Colour: ff00ff
EndChar

StartChar: uniE053
Encoding: 57427 57427 517
GlifName: uniE_053
Width: 1144
Flags: HW
LayerCount: 2
Fore
SplineSet
972 458 m 0
 972 318 859 232 750 166 c 1
 862 125 989 100 1143 100 c 1
 1144 100 l 1
 1144 0 l 1
 1143 0 l 1
 941 0 778 36 639 104 c 1
 433 18 215 -115 215 -326 c 0
 215 -496 429 -640 722 -640 c 0
 825 -640 934 -621 1039 -582 c 1
 1074 -676 l 1
 958 -720 837 -740 723 -740 c 0
 410 -740 115 -585 115 -328 c 0
 115 -73 336 76 530 165 c 1
 389 254 276 365 177 472 c 1
 182 592 l 1
 277 670 429 722 594 722 c 0
 783 722 972 626 972 458 c 0
872 457 m 0
 872 537 760 622 596 622 c 0
 475 622 350 588 281 542 c 1
 279 513 l 1
 381 405 499 294 642 215 c 1
 776 278 872 361 872 457 c 0
EndSplineSet
Colour: ff00ff
EndChar

StartChar: uniE054
Encoding: 57428 57428 518
GlifName: uniE_054
Width: 1083
Flags: HW
LayerCount: 2
Fore
SplineSet
253 386 m 0
 253 251 383 174 558 174 c 0
 581 174 604 174 623 177 c 2
 896 229 l 1
 914 131 l 1
 447 42 l 2
 305 15 159 0 0 0 c 0
 -28 0 -50 22 -50 50 c 0
 -50 78 -28 100 0 100 c 0
 114 100 221 108 325 123 c 1
 226 172 153 261 153 386 c 0
 153 633 334 793 527 793 c 0
 674 793 779 723 842 648 c 1
 766 584 l 1
 719 641 640 693 527 693 c 0
 390 693 253 581 253 386 c 0
EndSplineSet
Colour: ff00ff
EndChar

StartChar: uniE055
Encoding: 57429 57429 519
GlifName: uniE_055
Width: 1026
Flags: HW
LayerCount: 2
Fore
SplineSet
118 552 m 1
 203 658 375 721 549 721 c 0
 720 721 912 631 912 424 c 0
 912 306 834 206 727 144 c 1
 816 116 914 100 1025 100 c 1
 1026 100 l 1
 1026 0 l 1
 1025 0 l 1
 862 0 720 33 598 85 c 1
 439 28 208 0 0 0 c 0
 -28 0 -50 22 -50 50 c 0
 -50 78 -28 100 0 100 c 0
 158 100 342 117 470 150 c 1
 336 229 222 336 118 437 c 1
 118 552 l 1
218 514 m 1
 218 481 l 1
 335 372 456 263 601 194 c 1
 731 248 812 337 812 424 c 0
 812 551 696 621 549 621 c 0
 419 621 281 574 218 514 c 1
EndSplineSet
Colour: ff00ff
EndChar

StartChar: uniE056
Encoding: 57430 57430 520
GlifName: uniE_056
Width: 1748
Flags: HW
LayerCount: 2
Fore
SplineSet
1315 1211 m 25
 1415 1211 l 25
 1415 492 l 2
 1415 329 1439 217 1522 156 c 0
 1573 119 1645 100 1747 100 c 2
 1748 100 l 1
 1748 0 l 1
 1747 0 l 2
 1638 0 1544 22 1473 70 c 0
 1426 102 1390 145 1365 201 c 1
 1353 177 1339 155 1322 136 c 0
 1233 33 1073 0 812 0 c 0
 492 0 128 34 128 365 c 0
 128 442 143 535 160 607 c 1
 258 583 l 1
 242 517 228 429 228 365 c 0
 228 142 468 100 826 100 c 0
 1060 100 1185 119 1250 193 c 0
 1301 252 1315 346 1315 492 c 2
 1315 1211 l 25
EndSplineSet
Colour: ff00ff
EndChar

StartChar: uniE057
Encoding: 57431 57431 521
GlifName: uniE_057
Width: 999
Flags: HW
LayerCount: 2
Back
SplineSet
849 1271 m 0
 600 1215 307 1103 95 967 c 1
 95 879 l 1
 337 711 541 501 541 321 c 0
 541 124 408 50 121 50 c 2
 0 50 l 1024
EndSplineSet
Fore
SplineSet
0 100 m 2
 121 100 l 2
 403 100 491 164 491 321 c 0
 491 477.156242338 283.918512588 682.34391958 45 853 c 1
 45 994 l 1
 268.32625436 1139.64755719 572.734533045 1260.70536621 838 1320 c 1
 860 1222 l 1
 626 1169 348 1064 145 939 c 1
 145 905 l 1
 380 738 591 529 591 321 c 0
 591 84 413 0 121 0 c 2
 0 0 l 2
 -28 0 -50 22 -50 50 c 0
 -50 78 -28 100 0 100 c 2
EndSplineSet
Colour: ff00ff
EndChar

StartChar: uniE058
Encoding: 57432 57432 522
GlifName: uniE_058
Width: 1020
Flags: HW
LayerCount: 2
Back
SplineSet
95 879 m 0
 388 682 504 502 589 335 c 0
 678 160 761 50 1019 50 c 1
 1020 50 l 1024
849 1271 m 0
 600 1215 307 1103 95 967 c 1
 95 879 l 1
 337 711 541 501 541 321 c 0
 541 124 408 50 121 50 c 2
 0 50 l 1024
EndSplineSet
Fore
SplineSet
0 100 m 0
 121 100 l 2
 403 100 491 164 491 321 c 0
 491 477.156242338 283.918512588 682.34391958 45 853 c 1
 45 994 l 1
 268.32625436 1139.64755719 572.734533045 1260.70536621 838 1320 c 1
 860 1222 l 1
 626 1169 348 1064 145 939 c 1
 145 905 l 1
 429 709 549 525 634 358 c 0
 720 188 782 100 1019 100 c 2
 1020 100 l 1
 1020 0 l 1
 1019 0 l 2
 778 0 668 98 583 241 c 1
 546 65 377 0 121 0 c 2
 0 0 l 0
 -28 0 -50 22 -50 50 c 0
 -50 78 -28 100 0 100 c 0
EndSplineSet
Colour: ff00ff
EndChar

StartChar: uniE059
Encoding: 57433 57433 523
GlifName: uniE_059
Width: 1439
Flags: HW
LayerCount: 2
Fore
SplineSet
1439 100 m 1
 1439 0 l 1
 1438 0 l 1
 1290 0 1179 35 1107 118 c 1
 1107 21 l 2
 1107 -329 922 -503 602 -503 c 0
 314 -503 128 -346 128 -74 c 0
 128 38 156 169 216 316 c 1
 307 274 l 1
 254 137 227 18 227 -80 c 0
 227 -288 367 -403 618 -403 c 0
 874 -403 1007 -275 1007 21 c 2
 1007 1186 l 1
 1107 1186 l 1
 1107 492 l 2
 1107 348 1129 250 1176 191 c 0
 1222 133 1299 100 1438 100 c 1
 1439 100 l 1
EndSplineSet
Colour: ff00ff
EndChar

StartChar: uniE05A
Encoding: 57434 57434 524
GlifName: uniE_05A_
Width: 596
Flags: HW
LayerCount: 2
Fore
SplineSet
396 366 m 2
 396 249 368 162 311 102 c 0
 245 33 142 0 0 0 c 0
 -27 0 -50 23 -50 50 c 0
 -50 77 -27 100 0 100 c 0
 124 100 201 118 245 168 c 0
 282 210 296 274 296 366 c 2
 296 1186 l 25
 396 1186 l 25
 396 366 l 2
EndSplineSet
Colour: ff00ff
EndChar

StartChar: uniE05B
Encoding: 57435 57435 525
GlifName: uniE_05B_
Width: 692
Flags: HW
LayerCount: 2
Fore
SplineSet
0 100 m 0
 120 100 194 128 238 185 c 0
 283 243 296 331 296 449 c 2
 296 1186 l 25
 396 1186 l 25
 396 449 l 2
 396 335 409 249 450 191 c 0
 493 130 568 100 691 100 c 1
 692 100 l 1
 692 0 l 1
 691 0 l 1
 522 0 405 55 346 172 c 1
 287 55 170 0 0 0 c 0
 -28 0 -50 22 -50 50 c 0
 -50 78 -28 100 0 100 c 0
EndSplineSet
Colour: ff00ff
EndChar

StartChar: uniE05C
Encoding: 57436 57436 526
GlifName: uniE_05C_
Width: 1329
Flags: HW
LayerCount: 2
Fore
SplineSet
495 171 m 1
 584 146 689 100 793 100 c 0
 898 100 969 136 969 277 c 0
 969 428 882 546 760 546 c 0
 589 546 510 353 495 171 c 1
1329 0 m 1
 1328 0 l 1
 1208 0 1117 35 1036 128 c 1
 987 38 891 0 793 0 c 0
 697 0 597 27 522 57 c 0
 476 75 449 85 401 85 c 0
 300 85 228 7 228 -124 c 2
 228 -785 l 1
 128 -785 l 1
 128 -124 l 2
 128 43 232 182 396 185 c 1
 413 367 498 646 760 646 c 0
 939 646 1047 494 1066 330 c 0
 1085 163 1174 100 1328 100 c 1
 1329 100 l 1
 1329 0 l 1
EndSplineSet
Colour: ff00ff
EndChar

StartChar: uniE05D
Encoding: 57437 57437 527
GlifName: uniE_05D_
Width: 1046
Flags: HW
LayerCount: 2
Fore
SplineSet
0 100 m 0
 122 100 175 151 231 271 c 0
 246 303 260 340 275 381 c 0
 331 534 435 666 605 666 c 0
 801 666 918 466 918 297 c 0
 918 136 796 0 626 0 c 0
 473 0 379 86 296 180 c 1
 234 70 144 0 0 0 c 0
 -28 0 -50 22 -50 50 c 0
 -50 78 -28 100 0 100 c 0
344 281 m 1
 400 194 501 100 627 100 c 0
 732 100 818 184 818 297 c 0
 818 432 723 566 605 566 c 0
 497 566 419 484 369 346 c 2
 344 281 l 1
EndSplineSet
Colour: ff00ff
EndChar

StartChar: uniE05E
Encoding: 57438 57438 528
GlifName: uniE_05E_
Width: 1238
Flags: HW
LayerCount: 2
Fore
SplineSet
0 100 m 0
 122 100 175 151 231 271 c 0
 246 303 260 340 275 381 c 0
 331 534 435 666 605 666 c 0
 786 666 899 497 916 338 c 1
 927 275 947 226 975 191 c 0
 1021 133 1098 100 1237 100 c 1
 1238 100 l 1
 1238 0 l 1
 1237 0 l 1
 1072 0 952 46 882 150 c 1
 835 61 735 0 628 0 c 0
 474 0 379 86 296 180 c 1
 234 70 144 0 0 0 c 0
 -28 0 -50 22 -50 50 c 0
 -50 78 -28 100 0 100 c 0
344 281 m 1
 400 194 502 100 628 100 c 0
 733 100 818 184 818 297 c 0
 818 432 723 566 605 566 c 0
 497 566 419 484 369 346 c 2
 344 281 l 1
EndSplineSet
Colour: ff00ff
EndChar

StartChar: uniE05F
Encoding: 57439 57439 529
GlifName: uniE_05F_
Width: 1041
Flags: HW
LayerCount: 2
Fore
SplineSet
627 695 m 1
 397 659 230 550 230 422 c 0
 230 312 327 255 477 255 c 0
 522 255 604 269 654 284 c 1
 627 695 l 1
1041 0 m 1
 1040 0 l 1
 843 0 739 60 682 186 c 1
 621 168 533 155 477 155 c 0
 311 155 130 228 130 422 c 0
 130 642 378 759 621 795 c 1
 613 935 l 1
 713 941 l 1
 745 402 l 2
 757 199 811 100 1040 100 c 1
 1041 100 l 1
 1041 0 l 1
EndSplineSet
Colour: ff00ff
EndChar

StartChar: uniE060
Encoding: 57440 57440 530
GlifName: uniE_060
Width: 1293
Flags: HW
LayerCount: 2
Fore
SplineSet
0 100 m 0
 127 100 244 112 342 137 c 1
 236 202 147 300 147 436 c 0
 147 575 250 701 359 746 c 1
 185 810 l 1
 227 913 l 1
 656 744 l 2
 883 654 1165 538 1165 285 c 0
 1165 129 1061 0 854 0 c 0
 763 0 599 26 473 74 c 1
 342 23 179 0 0 0 c 0
 -28 0 -50 22 -50 50 c 0
 -50 78 -28 100 0 100 c 0
472 183 m 1
 592 239 664 324 664 446 c 0
 664 575 620 681 499 681 c 0
 393 681 247 592 247 436 c 0
 247 323 344 239 472 183 c 1
597 139 m 1
 696 112 794 100 854 100 c 0
 1011 100 1065 179 1065 285 c 0
 1065 423 930 524 739 605 c 1
 809 408 736 236 597 139 c 1
EndSplineSet
Colour: ff00ff
EndChar

StartChar: uniE061
Encoding: 57441 57441 531
GlifName: uniE_061
Width: 986
Flags: HW
LayerCount: 2
Fore
SplineSet
278 119 m 1
 577 164 705 278 705 422 c 0
 705 566 642 617 544 617 c 0
 388 617 283 448 278 119 c 1
986 0 m 1
 985 0 l 1
 821 0 750 -45 750 -185 c 2
 750 -437 l 1
 646 -502 l 1
 404 -489 221 -265 184 7 c 1
 126 2 65 0 0 0 c 0
 -27 0 -50 23 -50 50 c 0
 -50 77 -27 100 0 100 c 0
 63 100 123 102 178 107 c 1
 180 445 290 717 544 717 c 0
 698 717 805 608 805 422 c 0
 805 198 598 63 283 18 c 1
 315 -212 480 -389 633.029296875 -400.623046875 c 1
 650 -391 l 1
 650 -185 l 2
 650 23 796 100 985 100 c 1
 986 100 l 1
 986 0 l 1
EndSplineSet
Colour: ff00ff
EndChar

StartChar: uniE062
Encoding: 57442 57442 532
GlifName: uniE_062
Width: 928
Flags: HW
LayerCount: 2
Fore
SplineSet
795 0 m 1
 760 -256 542 -418 166 -514 c 1
 141 -418 l 1
 498 -327 662 -188 694 0 c 1
 488 0 l 2
 315 0 162 76 162 279 c 0
 162 469 288 676 470 676 c 0
 748 676 796 284 800 100 c 1
 928 100 l 1
 928 0 l 1
 795 0 l 1
700 100 m 1
 695 307 629 576 470 576 c 0
 372 576 262 439 262 279 c 0
 262 146 339 100 488 100 c 2
 700 100 l 1
EndSplineSet
Colour: ff00ff
EndChar

StartChar: uniE063
Encoding: 57443 57443 533
GlifName: uniE_063
Width: 1033
Flags: HW
LayerCount: 2
Fore
SplineSet
656 530 m 1
 541 378 404 256 288 169 c 1
 288 147 l 1
 347 120 446 100 528 100 c 0
 674 100 771 137 771 228 c 0
 771 292 729 405 656 530 c 1
658 712 m 1
 747 863 808 987 808 1186 c 1
 908 1186 l 1
 908 948 829 791 719 620 c 1
 809 474 871 336 871 228 c 0
 871 35 666 0 528 0 c 0
 399 0 273 37 188 89 c 1
 188 219 l 1
 322 320 473 445 599 621 c 1
 471 814 288 966 125 1080 c 1
 183 1162 l 1
 352 1045 526 903 658 712 c 1
EndSplineSet
Colour: ff00ff
EndChar

StartChar: uniE064
Encoding: 57444 57444 534
GlifName: uniE_064
Width: 1372
Flags: HW
LayerCount: 2
Fore
SplineSet
449 340 m 1
 349 340 l 1
 349 657 293 886 170 1171 c 1
 262 1209 l 1
 391 910 449 669 449 340 c 1
1372 0 m 1
 1371 0 l 1
 1162 0 1028 76 972 236 c 1
 852 55 567 0 100 0 c 1
 100 100 l 1
 749 100 938 195 938 491 c 2
 938 1186 l 1
 1038 1186 l 1
 1038 492 l 2
 1038 349 1061 250 1108 191 c 0
 1154 133 1232 100 1371 100 c 1
 1372 100 l 1
 1372 0 l 1
EndSplineSet
Colour: ff00ff
EndChar

StartChar: uniE065
Encoding: 57445 57445 535
GlifName: uniE_065
Width: 1873
Flags: HW
LayerCount: 2
Fore
SplineSet
1652 557 m 1
 1630 478 1601 367 1601 285 c 0
 1601 179 1636 100 1872 100 c 1
 1873 100 l 1
 1873 0 l 1
 1872 0 l 1
 1635 0 1523 93 1504 235 c 1
 1329 55 1101 2 747 2 c 0
 391 2 127 92 127 388 c 0
 127 470 152 580 190 673 c 1
 282 635 l 1
 249 554 227 451 227 388 c 0
 227 188 387 102 747 102 c 0
 1348 102 1497 253 1555 581 c 1
 1652 557 l 1
EndSplineSet
Colour: ff00ff
EndChar

StartChar: uniE066
Encoding: 57446 57446 536
GlifName: uniE_066
Width: 921
Flags: HW
LayerCount: 2
Fore
SplineSet
691 378 m 1
 626 359 558 347 481 347 c 0
 308 347 155 423 155 626 c 0
 155 816 281 1023 463 1023 c 0
 753 1023 793 599 793 421 c 0
 793 19 542 0 0 0 c 1
 -28 0 -50 22 -50 50 c 0
 -50 78 -28 100 0 100 c 1
 545 100 691 125 691 378 c 1
691 482 m 1
 680 689 612 923 463 923 c 0
 365 923 255 786 255 626 c 0
 255 493 332 447 481 447 c 0
 559 447 624 460 691 482 c 1
EndSplineSet
Colour: ff00ff
EndChar

StartChar: uniE067
Encoding: 57447 57447 537
GlifName: uniE_067
Width: 1876
Flags: HW
LayerCount: 2
Fore
SplineSet
1417 68 m 1
 1272 17 1093 0 891 0 c 0
 496 0 129 42 129 375 c 0
 129 484 162 586 190 670 c 1
 284 638 l 1
 257 555 229 464 229 375 c 0
 229 154 470 100 891 100 c 0
 1039 100 1174 110 1286 135 c 1
 1180 208 1112 318 1112 464 c 0
 1112 669 1243 790 1422 790 c 0
 1598 790 1732 669 1732 464 c 0
 1732 316 1664 205 1552 133 c 1
 1649 111 1759 100 1875 100 c 1
 1876 100 l 1
 1876 0 l 1
 1875 0 l 1
 1708 0 1547 19 1417 68 c 1
1419 176 m 1
 1553 231 1632 319 1632 464 c 0
 1632 619 1546 690 1422 690 c 0
 1295 690 1212 619 1212 464 c 0
 1212 321 1293 232 1419 176 c 1
EndSplineSet
Colour: ff00ff
EndChar

StartChar: uniE068
Encoding: 57448 57448 538
GlifName: uniE_068
Width: 908
Flags: HW
LayerCount: 2
Fore
SplineSet
0 100 m 0
 116 100 227 110 323 132 c 1
 214 205 144 316 144 464 c 0
 144 669 275 790 454 790 c 0
 630 790 764 669 764 464 c 0
 764 316 693 205 585 132 c 1
 681 110 791 100 907 100 c 1
 908 100 l 1
 908 0 l 1
 907 0 l 1
 742 0 583 20 454 67 c 1
 325 20 165 0 0 0 c 0
 -28 0 -50 22 -50 50 c 0
 -50 78 -28 100 0 100 c 0
454 174 m 1
 582 230 664 320 664 464 c 0
 664 619 578 690 454 690 c 0
 327 690 244 619 244 464 c 0
 244 320 325 230 454 174 c 1
EndSplineSet
Colour: ff00ff
EndChar

StartChar: uniE069
Encoding: 57449 57449 539
GlifName: uniE_069
Width: 1415
Flags: HW
LayerCount: 2
Fore
SplineSet
1186 0 m 1
 975 0 l 2
 802 0 649 76 649 279 c 0
 649 469 775 676 957 676 c 0
 1232 676 1283 296 1287 100 c 1
 1415 100 l 1
 1415 0 l 1
 1284 0 l 1
 1252 -336 1000 -503 684 -503 c 0
 375 -503 128 -343 128 0 c 0
 128 93 158 234 206 365 c 1
 298 333 l 1
 253 209 228 80 228 0 c 0
 228 -265 401 -403 684 -403 c 0
 971 -403 1161 -263 1186 0 c 1
1185 100 m 1
 1183 321 1111 576 957 576 c 0
 859 576 749 439 749 279 c 0
 749 146 826 100 975 100 c 2
 1185 100 l 1
EndSplineSet
Colour: ff00ff
EndChar

